<?xml version="1.0" encoding="UTF-8"?>
<svg width="71px" height="38px" viewBox="0 0 71 38" version="1.1" xmlns="http://www.w3.org/2000/svg" xmlns:xlink="http://www.w3.org/1999/xlink">
    <!-- Generator: Sketch 51.2 (57519) - http://www.bohemiancoding.com/sketch -->
    <title>Group 17</title>
    <desc>Created with Sketch.</desc>
    <defs>
        <polygon id="path-1" points="0 0.0124632479 33.87406 0.0124632479 33.87406 22.9606018 0 22.9606018"></polygon>
        <polygon id="path-3" points="0 0.0124632479 33.87406 0.0124632479 33.87406 22.9606018 0 22.9606018"></polygon>
    </defs>
    <g id="Page-1" stroke="none" stroke-width="1" fill="none" fill-rule="evenodd">
        <g id="Desktop-Large-Copy" transform="translate(-658.000000, -359.000000)">
            <g id="Group-17" transform="translate(658.000000, 359.000000)">
                <path d="M36.2936295,11 C36.9452617,13.1888276 47.7599177,20.1805522 57.8474355,13.9595784 C65.6642689,9.13916432 69.1837512,13.5808474 68.9926267,14.1806558 C68.8015023,14.7800616 65.8249157,19.9870592 60.7723084,22.3051506 C56.0181856,24.4867298 46.1475508,28.0507476 35,19.9739717 L36.2936295,11 Z" id="Fill-1" fill="#FFD900"></path>
                <g id="Group-5" transform="translate(0.000000, 12.000000)">
                    <mask id="mask-2" fill="white">
                        <use xlink:href="#path-1"></use>
                    </mask>
                    <g id="Clip-4"></g>
                    <path d="M25.31846,0.0124632479 C26.05226,2.12708718 22.25166,14.1983521 9.16606,14.6408564 C0.79606,14.9237368 -0.40694,20.9688051 0.09886,21.3318906 C0.60506,21.6951726 5.96966,22.944053 11.60106,22.9603692 C20.17486,22.9851385 29.36806,21.0505829 33.87406,8.13637778 L25.31846,0.0124632479 Z" id="Fill-3" fill="#FFD900" mask="url(#mask-2)"></path>
                </g>
                <g id="Group-8" transform="translate(0.000000, 12.000000)">
                    <mask id="mask-4" fill="white">
                        <use xlink:href="#path-3"></use>
                    </mask>
                    <g id="Clip-7"></g>
                    <path d="M25.31846,0.0124632479 C26.05226,2.12708718 22.25166,14.1983521 9.16606,14.6408564 C0.79606,14.9237368 -0.40694,20.9688051 0.09886,21.3318906 C0.60506,21.6951726 5.96966,22.944053 11.60106,22.9603692 C20.17486,22.9851385 29.36806,21.0505829 33.87406,8.13637778 L25.31846,0.0124632479 Z" id="Fill-6" fill="#E3C40F" mask="url(#mask-4)"></path>
                </g>
                <path d="M59,23.299788 C52.2683099,23.7298618 42.960401,22.7585716 39.1427647,15.0436197 C38.7258662,14.2015933 38.295051,13.4294336 37.8553612,12.7180803 C36.9977646,12.0508217 36.4586404,11.4318859 36.3269352,11 L35,19.9739646 C44.7798694,26.8817227 53.6004891,25.2745837 59,23.299788" id="Fill-9" fill="#E3C40F"></path>
                <path d="M70.9932092,34.4001164 C71.1961074,32.7531013 66.8320052,27.4243932 60.629486,27.4241924 C54.4271657,27.4239916 41.3883687,26.1712644 38.2583652,15.9727799 C35.1283616,5.7742954 28.7999262,4 28.7999262,4 L25.6925995,4.90421209 C24.3755513,6.89291657 23.5601789,21.6277191 36.7213116,32.7410559 C48.2296195,42.4591275 70.7905099,36.0471315 70.9932092,34.4001164" id="Fill-11" fill="#FFD900"></path>
                <polygon id="Fill-13" fill="#4D4D4D" points="29 4.08951241 28.7964719 0 24 0.680844182 25.8614884 5"></polygon>
                <path d="M27.0908219,5 C31.0676557,30.3016536 57.0282719,35.392002 70.4829077,32.9482709 C70.8505142,33.5610823 71.038097,34.0973663 70.9935386,34.4540981 C70.7910368,36.076397 48.2299848,42.3921703 36.7213956,32.8201322 C23.5601686,21.8733718 24.3755468,7.35988725 25.6926044,5.40082885 L27.0908219,5 Z" id="Fill-15" fill="#E3C40F"></path>
            </g>
        </g>
    </g>
</svg>