<?xml version="1.0" encoding="UTF-8"?>
<svg width="54px" height="47px" viewBox="0 0 54 47" version="1.1" xmlns="http://www.w3.org/2000/svg" xmlns:xlink="http://www.w3.org/1999/xlink">
    <!-- Generator: Sketch 51.2 (57519) - http://www.bohemiancoding.com/sketch -->
    <title>Group 12</title>
    <desc>Created with Sketch.</desc>
    <defs>
        <polygon id="path-1" points="0 0.787106441 29.8053591 0.787106441 29.8053591 44.9028672 0 44.9028672"></polygon>
        <polygon id="path-3" points="0.782194615 0.787188082 15.9866327 0.787188082 15.9866327 44.9028672 0.782194615 44.9028672"></polygon>
        <polygon id="path-5" points="0 46.0542227 29.9352448 46.0542227 29.9352448 0 0 0"></polygon>
    </defs>
    <g id="Page-1" stroke="none" stroke-width="1" fill="none" fill-rule="evenodd">
        <g id="Desktop-Large-Copy" transform="translate(-913.000000, -421.000000)">
            <g id="Group-12" transform="translate(940.851597, 444.740381) rotate(-60.000000) translate(-940.851597, -444.740381) translate(925.851597, 421.240381)">
                <g id="Group-3" transform="translate(0.000000, 1.151356)">
                    <mask id="mask-2" fill="white">
                        <use xlink:href="#path-1"></use>
                    </mask>
                    <g id="Clip-2"></g>
                    <path d="M26.8617267,0.787106441 L2.9434661,0.787106441 C1.45418767,0.787106441 -0.000166306915,2.8665174 -0.000166306915,3.38004292 L-0.000166306915,5.10839509 L-0.000166306915,40.2575431 L-0.000166306915,42.0577399 L-0.000166306915,42.1157054 C-0.000166306915,42.812108 1.93232005,44.9029488 2.9434661,44.9029488 L26.8617267,44.9029488 C27.6899351,44.9029488 29.8053591,42.666786 29.8053591,42.1157054 L29.8053591,42.0577399 L29.8053591,40.2575431 L29.8053591,5.10839509 L29.8053591,3.38004292 C29.8053591,2.7318088 28.5938132,0.787106441 26.8617267,0.787106441" id="Fill-1" fill="#DEDEDE" mask="url(#mask-2)"></path>
                </g>
                <g id="Group-6" transform="translate(13.816267, 1.151356)">
                    <mask id="mask-4" fill="white">
                        <use xlink:href="#path-3"></use>
                    </mask>
                    <g id="Clip-5"></g>
                    <path d="M0.782194615,44.9030305 L12.9834126,44.9030305 C13.827538,44.9030305 15.9866327,42.6668677 15.9866327,42.1149706 L15.9866327,42.0578215 L15.9866327,40.2576247 L15.9866327,5.10847674 L15.9866327,3.38012456 C15.9866327,2.73189044 14.7505616,0.787188082 12.9834126,0.787188082 L0.782194615,0.787188082 L0.782194615,44.9030305 Z" id="Fill-4" fill="#D2D2D2" mask="url(#mask-4)"></path>
                </g>
                <mask id="mask-6" fill="white">
                    <use xlink:href="#path-5"></use>
                </mask>
                <g id="Clip-8"></g>
                <polygon id="Fill-7" fill="#FF5B57" mask="url(#mask-6)" points="0 42.600156 29.9352448 42.600156 29.9352448 4.60542227 0 4.60542227"></polygon>
                <polygon id="Fill-9" fill="#FF4C4C" mask="url(#mask-6)" points="14.9676224 42.600156 29.9352448 42.600156 29.9352448 4.60542227 14.9676224 4.60542227"></polygon>
                <path d="M26.8822705,1.15135557 L1.90161876,1.15135557 C1.48962925,1.15135557 1.15135557,0.922969197 1.15135557,0.643583926 L1.15135557,0.507771642 C1.15135557,0.228386372 1.48962925,0 1.90161876,0 L26.8822705,0 C27.295079,0 27.6325336,0.228386372 27.6325336,0.507771642 L27.6325336,0.643583926 C27.6325336,0.922969197 27.295079,1.15135557 26.8822705,1.15135557" id="Fill-10" fill="#D2D2D2" mask="url(#mask-6)"></path>
                <path d="M14.9676224,1.15135557 L27.7380499,1.15135557 C28.3135158,1.15135557 28.7838892,0.892480725 28.7838892,0.575400616 C28.7838892,0.25942918 28.3135158,0 27.7380499,0 L14.9676224,0 L14.9676224,1.15135557 Z" id="Fill-11" fill="#C2C2C2" mask="url(#mask-6)"></path>
            </g>
        </g>
    </g>
</svg>