<?xml version="1.0" encoding="UTF-8"?>
<svg width="56px" height="56px" viewBox="0 0 56 56" version="1.1" xmlns="http://www.w3.org/2000/svg" xmlns:xlink="http://www.w3.org/1999/xlink">
    <!-- Generator: Sketch 51.2 (57519) - http://www.bohemiancoding.com/sketch -->
    <title>Group 23</title>
    <desc>Created with Sketch.</desc>
    <defs>
        <polygon id="path-1" points="0.000165 0.0077 32.4621 0.0077 32.4621 6.7397 0.000165 6.7397"></polygon>
        <polygon id="path-3" points="0.5778 0.0077 17.4411429 0.0077 17.4411429 6.7397 0.5778 6.7397"></polygon>
    </defs>
    <g id="Page-1" stroke="none" stroke-width="1" fill="none" fill-rule="evenodd">
        <g id="Desktop-Large-Copy" transform="translate(-745.000000, -430.000000)">
            <g id="Group-23" transform="translate(772.730877, 458.163290) rotate(47.000000) translate(-772.730877, -458.163290) translate(756.230877, 430.163290)">
                <path d="M26.0690083,56 L6.93099174,56 C5.5885124,56 4.50052342,55.0797922 4.50052342,53.9458156 L1,11 L32,11 L28.4994766,53.9458156 C28.4994766,55.0797922 27.4106336,56 26.0690083,56" id="Fill-1" fill="#F5F2EF"></path>
                <path d="M26.2085835,56 L17,56 L17,11 L32,11 L28.6117569,53.9007237 C28.6117569,55.0605864 27.5357832,56 26.2085835,56" id="Fill-3" fill="#EFE9E2"></path>
                <path d="M31,11 L1,11 L2.70151507,3.7777442 C3.0034103,1.60466873 4.71247275,0 6.72426902,0 L25.2765696,0 C27.2866887,0 28.9965897,1.60466873 29.2984849,3.7777442 L31,11 Z" id="Fill-5" fill="#9B2291"></path>
                <path d="M17,11 L32,11 L30.2976463,3.7777442 C29.9965897,1.60466873 28.2866887,0 26.275731,0 L17,0 L17,11 Z" id="Fill-7" fill="#7E0374"></path>
                <g id="Group-11" transform="translate(0.000000, 8.000000)">
                    <mask id="mask-2" fill="white">
                        <use xlink:href="#path-1"></use>
                    </mask>
                    <g id="Clip-10"></g>
                    <path d="M30.150615,6.7397 L2.311815,6.7397 C1.034715,6.7397 0.000165,5.4857 0.000165,3.9377 L0.000165,2.9417 C0.000165,1.3277 1.089165,0.0077 2.420715,0.0077 L30.04089,0.0077 C31.37244,0.0077 32.462265,1.3277 32.462265,2.9417 L32.462265,3.9377 C32.462265,5.4857 31.42689,6.7397 30.150615,6.7397" id="Fill-9" fill="#9B2291" mask="url(#mask-2)"></path>
                </g>
                <g id="Group-14" transform="translate(15.000000, 8.000000)">
                    <mask id="mask-4" fill="white">
                        <use xlink:href="#path-3"></use>
                    </mask>
                    <g id="Clip-13"></g>
                    <path d="M0.5778,6.7397 L15.5306571,6.7397 C16.5858,6.7397 17.4412286,5.6397 17.4412286,4.2827 L17.4412286,2.5807 C17.4412286,1.1657 16.5403714,0.0077 15.4406571,0.0077 L0.5778,0.0077 L0.5778,6.7397 Z" id="Fill-12" fill="#7E0374" mask="url(#mask-4)"></path>
                </g>
                <polygon id="Fill-15" fill="#9B2291" points="2 21 31 21.0044504 29.0549934 46 4.04108713 45.9499347"></polygon>
                <polygon id="Fill-17" fill="#7E0374" points="17 45.9227781 29.0926405 46 31 21.0599615 17 21"></polygon>
                <path d="M28,28.5 C28,35.4033433 22.8512098,41 16.4995803,41 C10.1479508,41 5,35.4033433 5,28.5 C5,21.5966567 10.1479508,16 16.4995803,16 C22.8512098,16 28,21.5966567 28,28.5" id="Fill-19" fill="#9B2291"></path>
                <path d="M17,41 C23.07525,41 28,35.4033433 28,28.5 C28,21.5966567 23.07525,16 17,16 L17,41 Z" id="Fill-21" fill="#7E0374"></path>
            </g>
        </g>
    </g>
</svg>