<?xml version="1.0" encoding="UTF-8"?>
<svg width="64px" height="58px" viewBox="0 0 64 58" version="1.1" xmlns="http://www.w3.org/2000/svg" xmlns:xlink="http://www.w3.org/1999/xlink">
    <!-- Generator: Sketch 51.2 (57519) - http://www.bohemiancoding.com/sketch -->
    <title>Group 46</title>
    <desc>Created with Sketch.</desc>
    <defs>
        <polygon id="path-1" points="0.0002 0.147 61.2272 0.147 61.2272 55.0137 0.0002 55.0137"></polygon>
    </defs>
    <g id="Page-1" stroke="none" stroke-width="1" fill="none" fill-rule="evenodd">
        <g id="Desktop-Large-Copy" transform="translate(-1239.000000, -431.000000)">
            <g id="Group-46" transform="translate(1239.000000, 430.000000)">
                <path d="M15.9422,58.853 C15.9422,58.853 33.3422,53.952 40.1022,41.874 C46.8612,29.796 63.5182,24.626 63.5182,24.626 L49.0182,3.987 C49.0182,3.987 33.9572,8.847 25.5492,20.969 C17.1432,33.091 2.2922,38.325 2.2922,38.325 L15.9422,58.853 Z" id="Fill-1" fill="#14301A"></path>
                <path d="M17.3016,56.2661 C17.3016,56.2661 33.9666,50.8881 39.4256,40.2471 C44.8836,29.6071 60.6676,23.7721 60.6676,23.7721 L47.5006,6.4041 C47.5006,6.4041 33.0846,11.9211 26.2056,22.6521 C19.3256,33.3821 4.8716,38.9671 4.8716,38.9671 L17.3016,56.2661 Z" id="Fill-3" fill="#14301A"></path>
                <path d="M36.4988,29.6694 C39.0028,33.2264 38.9258,37.5914 36.3268,39.4214 C33.7278,41.2514 29.5928,39.8514 27.0888,36.2954 C24.5848,32.7394 24.6618,28.3734 27.2608,26.5444 C29.8588,24.7144 33.9958,26.1134 36.4988,29.6694" id="Fill-5" fill="#14301A"></path>
                <path d="M37.2449,29.145 C40.1439,33.264 40.0559,38.322 37.0449,40.441 C34.0349,42.561 29.2429,40.94 26.3439,36.82 C23.4429,32.701 23.5319,27.644 26.5429,25.524 C29.5529,23.405 34.3449,25.026 37.2449,29.145" id="Fill-7" fill="#14301A"></path>
                <path d="M29.6268,29.397 L28.9778,28.432 L28.1758,28.972 L28.9068,30.06 C28.5908,30.463 28.3818,30.927 28.3188,31.381 C28.1798,32.394 28.7288,33.235 29.7528,33.575 C30.7938,33.919 31.6538,33.78 32.3448,33.668 C33.2418,33.521 33.5148,33.506 33.8278,34.12 C33.9518,34.362 33.9698,34.588 33.8838,34.833 C33.6218,35.577 32.4818,36.23 32.0648,36.418 L32.4608,37.3 C32.5498,37.26 32.9678,37.063 33.4318,36.74 L34.1228,37.81 L34.9358,37.285 L34.1758,36.109 C34.3018,35.977 34.4208,35.838 34.5228,35.688 C34.6358,35.521 34.7298,35.343 34.7958,35.155 C34.9688,34.665 34.9318,34.154 34.6888,33.679 C34.0408,32.412 33.0578,32.572 32.1898,32.713 C31.5718,32.814 30.8728,32.927 30.0578,32.657 C29.3158,32.411 29.2248,31.899 29.2768,31.513 C29.3808,30.766 30.1128,29.933 31.1178,29.887 L31.0738,28.92 C30.5238,28.947 30.0368,29.126 29.6268,29.397" id="Fill-9" fill="#14301A"></path>
                <path d="M22.5945,39.9458 C23.5615,40.5978 23.8165,41.9098 23.1635,42.8768 C22.5125,43.8428 21.1995,44.0978 20.2335,43.4468 C19.2675,42.7948 19.0115,41.4818 19.6635,40.5148 C20.3165,39.5498 21.6275,39.2938 22.5945,39.9458" id="Fill-11" fill="#14301A"></path>
                <path d="M41.8826,22.5562 C42.8496,23.2082 43.1046,24.5202 42.4526,25.4872 C41.8006,26.4532 40.4886,26.7082 39.5226,26.0562 C38.5556,25.4052 38.3006,24.0922 38.9516,23.1252 C39.6046,22.1602 40.9166,21.9042 41.8826,22.5562" id="Fill-13" fill="#14301A"></path>
                <path d="M43.1678,8.8599 C43.3478,9.7809 43.8778,10.6339 44.7178,11.2009 C46.3368,12.2929 48.5138,11.9209 49.6838,10.3869 L47.2628,7.0769 L43.1678,8.8599 Z" id="Fill-15" fill="#14301A"></path>
                <path d="M54.8035,25.8228 C53.5405,24.6098 53.2935,22.6298 54.3065,21.1278 C54.8925,20.2588 55.7855,19.7198 56.7445,19.5598 L59.5535,23.5408 L54.8035,25.8228 Z" id="Fill-17" fill="#14301A"></path>
                <path d="M21.6024,54.0835 C21.3694,53.2965 20.8714,52.5825 20.1364,52.0875 C18.5774,51.0355 16.4994,51.3425 15.3044,52.7355 L17.3874,55.6975 L21.6024,54.0835 Z" id="Fill-19" fill="#14301A"></path>
                <path d="M8.4901,42.9751 C8.8501,42.7241 9.1711,42.4041 9.4301,42.0181 C10.3901,40.5951 10.2191,38.7421 9.1221,37.5191 L5.7531,39.4161 L8.4901,42.9751 Z" id="Fill-21" fill="#14301A"></path>
                <g id="Group-25" transform="translate(0.000000, 0.853000)">
                    <mask id="mask-2" fill="white">
                        <use xlink:href="#path-1"></use>
                    </mask>
                    <g id="Clip-24"></g>
                    <path d="M13.6512,55.0137 C13.6512,55.0137 31.0502,50.1127 37.8102,38.0347 C44.5692,25.9567 61.2272,20.7857 61.2272,20.7857 L46.7262,0.1467 C46.7262,0.1467 31.6652,5.0077 23.2572,17.1287 C14.8512,29.2507 0.0002,34.4847 0.0002,34.4847 L13.6512,55.0137 Z" id="Fill-23" fill="#7FC44E" mask="url(#mask-2)"></path>
                </g>
                <path d="M45.2088,3.4175 C45.2088,3.4175 30.7938,8.9355 23.9138,19.6645 C17.0338,30.3955 2.5798,35.9805 2.5798,35.9805 L15.0108,53.2795 C15.0108,53.2795 31.6758,47.9015 37.1338,37.2615 C42.5928,26.6205 58.3758,20.7855 58.3758,20.7855 L45.2088,3.4175 Z M44.8288,4.8185 L56.5538,20.2835 C54.9728,20.9575 52.2458,22.2185 49.2088,24.0485 C42.8808,27.8615 38.4738,32.1305 36.1108,36.7365 C31.5968,45.5375 18.7518,50.7015 15.4408,51.9095 L4.3548,36.4805 C8.1868,34.7855 19.0548,29.3745 24.8818,20.2855 C30.5628,11.4225 41.7638,6.1395 44.8288,4.8185 Z" id="Fill-26" fill="#406227"></path>
                <path d="M34.2078,26.6831 C36.7108,30.2391 36.6338,34.6051 34.0348,36.4341 C31.4368,38.2641 27.3008,36.8651 24.7968,33.3091 C22.2928,29.7521 22.3698,25.3871 24.9688,23.5571 C27.5668,21.7281 31.7038,23.1271 34.2078,26.6831" id="Fill-28" fill="#406227"></path>
                <path d="M27.3201,20.4565 C25.9391,20.4565 24.6491,20.8515 23.5891,21.5975 C21.8251,22.8395 20.8301,24.9055 20.7851,27.4155 C20.7431,29.7905 21.5691,32.3055 23.1111,34.4955 C25.3001,37.6035 28.5851,39.5345 31.6841,39.5345 C33.0651,39.5345 34.3551,39.1405 35.4151,38.3935 C37.1781,37.1525 38.1741,35.0865 38.2181,32.5765 C38.2601,30.2005 37.4341,27.6865 35.8921,25.4965 C33.7041,22.3885 30.4191,20.4565 27.3201,20.4565 M27.3201,21.6055 C29.9491,21.6055 32.9171,23.2675 34.9531,26.1585 C37.8531,30.2775 37.7631,35.3345 34.7541,37.4545 C33.8561,38.0865 32.8001,38.3855 31.6841,38.3855 C29.0541,38.3855 26.0871,36.7255 24.0511,33.8335 C21.1511,29.7145 21.2401,24.6565 24.2511,22.5375 C25.1481,21.9055 26.2041,21.6055 27.3201,21.6055" id="Fill-30" fill="#406227"></path>
                <path d="M27.3348,26.4106 L26.6858,25.4456 L25.8838,25.9846 L26.6158,27.0726 C26.2988,27.4756 26.0908,27.9396 26.0268,28.3936 C25.8878,29.4076 26.4378,30.2476 27.4608,30.5876 C28.5018,30.9326 29.3618,30.7936 30.0538,30.6816 C30.9498,30.5346 31.2228,30.5196 31.5358,31.1336 C31.6598,31.3746 31.6778,31.6016 31.5928,31.8466 C31.3298,32.5906 30.1898,33.2436 29.7728,33.4316 L30.1688,34.3126 C30.2578,34.2726 30.6758,34.0756 31.1398,33.7536 L31.8308,34.8226 L32.6438,34.2986 L31.8838,33.1226 C32.0098,32.9896 32.1288,32.8516 32.2308,32.7006 C32.3438,32.5346 32.4378,32.3566 32.5038,32.1686 C32.6768,31.6786 32.6398,31.1676 32.3968,30.6926 C31.7488,29.4246 30.7658,29.5846 29.8978,29.7256 C29.2808,29.8266 28.5808,29.9406 27.7658,29.6696 C27.0238,29.4246 26.9328,28.9126 26.9848,28.5266 C27.0888,27.7786 27.8208,26.9466 28.8258,26.9006 L28.7818,25.9336 C28.2328,25.9596 27.7448,26.1396 27.3348,26.4106" id="Fill-32" fill="#7FC44E"></path>
                <path d="M20.3026,36.9595 C21.2696,37.6105 21.5246,38.9235 20.8726,39.8905 C20.2206,40.8555 18.9076,41.1115 17.9426,40.4595 C16.9756,39.8075 16.7206,38.4955 17.3716,37.5285 C18.0246,36.5625 19.3356,36.3075 20.3026,36.9595" id="Fill-34" fill="#406227"></path>
                <path d="M39.5916,19.5698 C40.5576,20.2208 40.8136,21.5338 40.1606,22.5008 C39.5096,23.4658 38.1966,23.7218 37.2306,23.0698 C36.2636,22.4178 36.0086,21.1058 36.6606,20.1388 C37.3126,19.1728 38.6246,18.9178 39.5916,19.5698" id="Fill-36" fill="#406227"></path>
                <path d="M40.8758,5.8726 C41.0558,6.7946 41.5858,7.6466 42.4258,8.2136 C44.0448,9.3066 46.2228,8.9336 47.3918,7.3996 L44.9708,4.0906 L40.8758,5.8726 Z" id="Fill-38" fill="#406227"></path>
                <path d="M52.5115,22.8355 C51.2485,21.6235 51.0015,19.6425 52.0145,18.1415 C52.6005,17.2725 53.4945,16.7335 54.4525,16.5735 L57.2615,20.5535 L52.5115,22.8355 Z" id="Fill-40" fill="#406227"></path>
                <path d="M19.3104,51.0972 C19.0774,50.3102 18.5794,49.5952 17.8454,49.1002 C16.2864,48.0482 14.2084,48.3562 13.0124,49.7492 L15.0954,52.7102 L19.3104,51.0972 Z" id="Fill-42" fill="#406227"></path>
                <path d="M6.199,39.9888 C6.558,39.7378 6.879,39.4178 7.138,39.0318 C8.098,37.6088 7.927,35.7548 6.831,34.5328 L3.461,36.4298 L6.199,39.9888 Z" id="Fill-44" fill="#406227"></path>
            </g>
        </g>
    </g>
</svg>