<?xml version="1.0" encoding="UTF-8"?>
<svg width="51px" height="51px" viewBox="0 0 51 51" version="1.1" xmlns="http://www.w3.org/2000/svg" xmlns:xlink="http://www.w3.org/1999/xlink">
    <!-- Generator: Sketch 51.2 (57519) - http://www.bohemiancoding.com/sketch -->
    <title>Group 11</title>
    <desc>Created with Sketch.</desc>
    <defs>
        <polygon id="path-1" points="0 0.0383607143 22.7101179 0.0383607143 22.7101179 22.7535988 0 22.7535988"></polygon>
        <polygon id="path-3" points="0.385013094 0.42740328 17.9576471 0.42740328 17.9576471 17.9998285 0.385013094 17.9998285"></polygon>
    </defs>
    <g id="Page-1" stroke="none" stroke-width="1" fill="none" fill-rule="evenodd">
        <g id="Desktop-Large-Copy" transform="translate(-804.000000, -359.000000)">
            <g id="Group-11" transform="translate(804.000000, 359.000000)">
                <path d="M37.4409234,24.4855941 C38.1651234,24.4861381 38.7523421,23.9002919 38.7523421,23.1784555 C38.7528879,22.4566191 38.1651234,21.870773 37.4409234,21.870773 L23.9545397,21.870773 L20.330265,18.2588711 L31.1938113,18.2588711 C31.9180113,18.2594151 32.50523,17.6735689 32.50523,16.9511886 C32.5057758,16.2293521 31.9180113,15.643506 31.1938113,15.64405 L17.7074276,15.64405 L17.0607229,15 L15,17.0539972 L15.6461589,17.6985911 L15.6456131,31.2388715 C15.6456131,31.9607079 16.2333776,32.54601 16.9575776,32.546554 C17.3199505,32.546554 17.6473959,32.4002285 17.8853395,32.1636054 C18.1227374,31.9269823 18.2695421,31.6000616 18.2689964,31.2388715 L18.2695421,20.3134123 L21.893271,23.9253141 L21.893271,37.4655945 C21.893271,38.1874309 22.4804897,38.773821 23.2052355,38.773277 C23.5670626,38.773821 23.8955995,38.6269515 24.1324517,38.3903284 C24.3698496,38.1537053 24.5166542,37.8267846 24.5166542,37.4655945 L24.5166542,26.5395913 L28.1403831,30.1520371 L28.1403831,43.6928614 C28.1398374,44.4146978 28.7276018,45 29.4518019,45 C29.8141747,45 30.1421659,44.8536745 30.3795638,44.6170514 C30.6169617,44.3804283 30.7637663,44.0535076 30.7637663,43.6928614 L30.7637663,32.7668583 L36.5164359,38.5007525 L38.5771589,36.4456673 L32.825035,30.7117731 L43.6874898,30.7123171 C44.4122355,30.7123171 45,30.1270149 45,29.4051785 C45,28.6833421 44.4122355,28.097496 43.6880355,28.097496 L30.201106,28.097496 L26.5779229,24.4855941 L37.4409234,24.4855941 Z" id="Fill-1" fill="#F1D9C6"></path>
                <g id="Group-5">
                    <mask id="mask-2" fill="white">
                        <use xlink:href="#path-1"></use>
                    </mask>
                    <g id="Clip-4"></g>
                    <path d="M2.54829048,2.59177143 C1.75588571,3.38417619 1.15569524,4.29377143 0.732385714,5.2619619 L8.24681429,12.7763905 C8.68929048,13.2188667 8.68929048,13.9362476 8.24681429,14.3781762 C7.80488571,14.8206524 7.08695714,14.8206524 6.64448095,14.3781762 L0.0538857143,7.78758095 C-0.228685714,10.329081 0.598766667,12.9707952 2.54829048,14.920319 L9.74948095,22.1215095 C10.5922667,22.9642952 11.9591238,22.9642952 12.8013619,22.1215095 L22.0780286,12.8453905 C22.9208143,12.0026048 22.9208143,10.6357476 22.0780286,9.79350952 L14.8768381,2.59177143 C11.4722905,-0.81277619 5.9528381,-0.81277619 2.54829048,2.59177143" id="Fill-3" fill="#F1EFDA" mask="url(#mask-2)"></path>
                </g>
                <path d="M15.9751269,7.02527239 C17.3416244,8.39179463 17.3416244,10.6085861 15.9751269,11.9751083 C14.6081218,13.3416306 12.3918782,13.3416306 11.0248731,11.9751083 C9.65837563,10.6085861 9.65837563,8.39179463 11.0248731,7.02527239 C12.3918782,5.65824254 14.6081218,5.65824254 15.9751269,7.02527239" id="Fill-6" fill="#393934"></path>
                <g id="Group-10" transform="translate(33.000000, 33.000000)">
                    <mask id="mask-4" fill="white">
                        <use xlink:href="#path-3"></use>
                    </mask>
                    <g id="Clip-9"></g>
                    <path d="M16.8181941,3.49877647 L3.3399,0.487482353 C1.60607647,0.0999529412 0.0575470588,1.64795294 0.445076471,3.38230588 L3.4569,16.8606 C3.58766471,17.4466588 4.05778235,17.9247176 4.65495882,17.9908941 C5.48560588,18.0840706 6.18813529,17.4360706 6.18813529,16.6250118 L6.18813529,6.23054118 L16.5826059,6.23054118 C17.3941941,6.23054118 18.0416647,5.52748235 17.9490176,4.69736471 C17.8823118,4.10071765 17.4042529,3.62954118 16.8181941,3.49877647" id="Fill-8" fill="#F1EFDA" mask="url(#mask-4)"></path>
                </g>
            </g>
        </g>
    </g>
</svg>