<?xml version="1.0" encoding="UTF-8"?>
<svg width="19px" height="18px" viewBox="0 0 19 18" version="1.1" xmlns="http://www.w3.org/2000/svg" xmlns:xlink="http://www.w3.org/1999/xlink">
    <!-- Generator: Sketch 51.2 (57519) - http://www.bohemiancoding.com/sketch -->
    <title>Shape</title>
    <desc>Created with Sketch.</desc>
    <defs></defs>
    <g id="Page-1" stroke="none" stroke-width="1" fill="none" fill-rule="evenodd">
        <g id="Desktop-Large-Copy" transform="translate(-1003.000000, -272.000000)" fill="#73B966" fill-rule="nonzero">
            <path d="M1019.82773,272.927595 C1018.83134,272.21597 1017.83135,272.072987 1017.64619,272.051749 C1017.56364,272.037092 1017.31895,272 1016.9582,272 C1016.02462,272 1014.21281,272.252464 1012.5,273.931767 C1010.78779,272.252763 1008.97538,272 1008.0418,272 C1007.68105,272 1007.43607,272.037092 1007.35381,272.051749 C1007.16865,272.072688 1006.16836,272.21597 1005.17227,272.927595 C1004.18126,273.635332 1003,275.056189 1003,277.806071 C1003,282.91996 1011.83594,288.995844 1012.21194,289.252196 C1012.29899,289.311424 1012.39949,289.341037 1012.5,289.341037 C1012.60051,289.341037 1012.70131,289.311424 1012.78806,289.252196 C1013.16436,288.996143 1022,282.920259 1022,277.806071 C1022,275.056189 1020.81874,273.635332 1019.82773,272.927595 Z" id="Shape"></path>
        </g>
    </g>
</svg>