<?xml version="1.0" encoding="UTF-8"?>
<svg width="150px" height="151px" viewBox="0 0 150 151" version="1.1" xmlns="http://www.w3.org/2000/svg" xmlns:xlink="http://www.w3.org/1999/xlink">
    <!-- Generator: Sketch 51.2 (57519) - http://www.bohemiancoding.com/sketch -->
    <title>Group 191</title>
    <desc>Created with Sketch.</desc>
    <defs>
        <path d="M0.030875,2.85615385 C1.7225,7.82384615 5.7565625,8.94384615 7.8089375,9.34153846 C9.9905,9.76384615 12.18425,8.83692308 12.3881875,8.69615385 C12.5913125,8.55538462 12.504375,6.40769231 8.8375625,6.13153846 C4.1055625,5.77692308 2.263625,1.21538462 2.57075,0.399230769 L0.030875,2.85615385 Z" id="path-1"></path>
        <path d="M4.52588889,1.43422222 C1.87211111,-0.373333333 0.131444444,1.22422222 0.206111111,1.45055556 C0.280777778,1.67766667 1.65355556,3.27522222 3.38877778,4.55466667 L3.51011111,4.64333333 C6.13744444,6.55122222 9.387,7.94966667 13.6445556,5.01588889 L12.8364444,0.565444444 C12.5836667,1.386 8.67455556,4.26066667 4.52588889,1.43422222 Z" id="path-3"></path>
        <path d="M4.52588889,1.43422222 C1.87211111,-0.373333333 0.131444444,1.22422222 0.206111111,1.45055556 C0.280777778,1.67766667 1.65355556,3.27522222 3.38877778,4.55466667 L3.51011111,4.64333333 C6.13744444,6.55122222 9.387,7.94966667 13.6445556,5.01588889 L12.8364444,0.565444444 C12.5836667,1.386 8.67455556,4.26066667 4.52588889,1.43422222 Z" id="path-5"></path>
        <path d="M0.0295555556,2.85615385 C1.491,7.16 4.58422222,8.64384615 6.70133333,9.24846154 C4.522,7.87230769 1.862,5.49076923 2.42666667,2.27461538 C2.48888889,1.92384615 2.53011111,1.59076923 2.55577778,1.27461538 C2.44144444,0.878461538 2.415,0.568461538 2.47177778,0.406923077 L0.0295555556,2.85615385 Z" id="path-7"></path>
        <path d="M0.804,11.4344 C2.2032,17.2072 10.876,20.4208 11.324,19.9448 C11.7728,19.4672 11.6248,16.7552 9.6512,15.3096 C7.6776,13.8656 3.82,10.4304 5.1984,6.4552 C6.5784,2.4816 4.9776,0.4416 4.9776,0.4416 L3.7768,0.0064 C2.8952,0.3328 -0.796,4.8312 0.804,11.4344 Z" id="path-9"></path>
        <polygon id="path-11" points="0.5715 2.322 1.70625 2.736 2.53875 1.47075 0.95925 0.62625"></polygon>
        <path d="M0.7864,11.5693846 C2.2192,17.3516538 10.8696,20.6268462 11.312,20.1535385 C11.4096,20.0493462 11.4736,19.8320769 11.5,19.5493846 C6.6496,17.1707308 -0.428,9.42980769 4.2,0.365884615 L3.6616,0.166384615 C2.7864,0.486230769 -0.8528,4.95761538 0.7864,11.5693846 Z" id="path-13"></path>
        <path d="M0.355384615,0.910769231 L0.552307692,1.10615385 L0.551538462,5.22538462 C0.551538462,5.44615385 0.73,5.62461538 0.951538462,5.62461538 C1.06076923,5.62461538 1.16076923,5.58 1.23307692,5.50769231 C1.30538462,5.43538462 1.35,5.33615385 1.35,5.22538462 L1.35,1.90230769 L2.45307692,3.00153846 L2.45307692,7.12076923 C2.45307692,7.34076923 2.63153846,7.51846154 2.85153846,7.51846154 C2.96230769,7.51846154 3.06230769,7.47461538 3.13384615,7.40230769 C3.20615385,7.33 3.25,7.23153846 3.25,7.12076923 L3.25,3.79692308 L4.35307692,4.89538462 L4.35307692,9.01615385 C4.35307692,9.23538462 4.53153846,9.41307692 4.75230769,9.41307692 C4.86307692,9.41307692 4.96230769,9.36923077 5.03461538,9.29615385 C5.10615385,9.22461538 5.15076923,9.12538462 5.15076923,9.01615385 L5.15076923,5.69076923 L6.90153846,7.43615385 L7.52923077,6.81076923 L5.77769231,5.06615385 L9.08384615,5.06615385 C9.30384615,5.06615385 9.48230769,4.88769231 9.48230769,4.66846154 C9.48230769,4.44846154 9.30384615,4.27 9.08384615,4.27 L4.98076923,4.27 L3.87769231,3.17153846 L7.18307692,3.17153846 C7.40307692,3.17153846 7.58230769,2.99384615 7.58230769,2.77461538 C7.58230769,2.55461538 7.40307692,2.37615385 7.18307692,2.37615385 L3.08,2.37615385 L1.97692308,1.27692308 L5.28230769,1.27692308 C5.50230769,1.27769231 5.68153846,1.09923077 5.68153846,0.879230769 C5.68153846,0.659230769 5.50230769,0.481538462 5.28230769,0.481538462 L1.17923077,0.481538462 L0.981538462,0.285384615 L0.355384615,0.910769231 Z" id="path-15"></path>
        <path d="M3.128,0.3632 C2.44,0.3768 1.7552,0.6456 1.2296,1.1712 C0.9792,1.4216 0.7888,1.7096 0.6552,2.0152 L3.0328,4.3936 C3.1728,4.5336 3.1728,4.7608 3.0328,4.9008 C2.8928,5.0408 2.6656,5.0408 2.5256,4.9008 L0.44,2.8144 C0.4312,2.892 0.4264,2.9704 0.424,3.0488 L0.424,3.1936 C0.4416,3.876 0.7088,4.552 1.2296,5.072 L3.5072,7.3504 C3.7752,7.6168 4.2072,7.6168 4.4736,7.3504 L7.4096,4.416 C7.676,4.1488 7.676,3.7168 7.4096,3.4504 L5.1304,1.1712 C4.6048,0.6456 3.9208,0.3768 3.2328,0.3632 L3.128,0.3632 Z" id="path-17"></path>
        <path d="M0.66675,0.91275 C0.261,1.31775 0.261,1.97625 0.66675,2.38125 C1.07325,2.787 1.73025,2.787 2.136,2.38125 C2.541,1.97625 2.541,1.31775 2.136,0.91275 C1.93275,0.71025 1.66725,0.609 1.40175,0.609 C1.13625,0.609 0.87,0.71025 0.66675,0.91275 Z" id="path-19"></path>
        <path d="M1.251,0.495 C0.873,0.504 0.5625,0.8115 0.5505,1.18875 L0.5505,1.23525 C0.552,1.2795 0.558,1.32525 0.56775,1.37175 L1.46175,5.37 C1.5,5.54325 1.6395,5.68575 1.8165,5.7045 C2.06325,5.73225 2.27175,5.541 2.27175,5.2995 L2.27175,2.21625 L5.355,2.21625 C5.57325,2.21625 5.75175,2.0445 5.763,1.8285 L5.763,1.788 C5.76225,1.779 5.7615,1.77 5.76075,1.76175 C5.74125,1.5855 5.59875,1.4445 5.42475,1.40625 L1.42725,0.513 C1.3785,0.50175 1.3305,0.4965 1.28325,0.495 L1.251,0.495 Z" id="path-21"></path>
    </defs>
    <g id="Page-1" stroke="none" stroke-width="1" fill="none" fill-rule="evenodd">
        <g id="Group-191">
            <g id="Group-113">
                <path d="M149.949144,75.6105191 C149.949144,95.1834926 142.457166,113.007115 130.19246,126.363386 C129.494599,127.13445 128.780695,127.882221 128.042727,128.621157 C126.735241,129.93036 125.379626,131.190567 123.983904,132.404189 C123.695134,132.653179 123.406364,132.902168 123.109572,133.13429 C122.756631,133.448338 122.395668,133.736684 122.034706,134.025833 C121.529358,134.435461 121.015989,134.845891 120.494599,135.23062 C120.141658,135.51254 119.772674,135.785626 119.411711,136.050679 C117.005294,137.825732 114.494599,139.464243 111.887647,140.942115 C108.799412,142.693072 105.566791,144.234397 102.221872,145.53637 C102.205829,145.543599 102.189786,145.552434 102.173743,145.552434 C101.524011,145.808652 100.866257,146.058445 100.208503,146.282535 C98.9972727,146.725094 97.7780214,147.126689 96.5427273,147.487322 C89.7325668,149.536264 82.5133155,150.635833 75.0454011,150.635833 L75.0133155,150.635833 C74.7806952,150.635833 74.5480749,150.635833 74.3154545,150.627801 C73.8903209,150.627801 73.4651872,150.620572 73.0400535,150.603705 C72.8876471,150.603705 72.7272193,150.595673 72.5748128,150.595673 C72.4224064,150.588445 72.2619786,150.580413 72.1095722,150.572381 C71.0427273,150.540253 69.9758824,150.475998 68.9170588,150.387647 C63.0293583,149.913764 57.3341711,148.756365 51.9036898,146.998179 C50.0828342,146.411046 48.2940642,145.753232 46.5373797,145.022328 C43.1363102,143.632003 39.8716043,141.986264 36.743262,140.122056 C36.4625134,139.961418 36.1897861,139.792748 35.9090374,139.624078 C34.6175936,138.829721 33.3582353,138.002434 32.1229412,137.134987 C31.9464706,137.013705 31.77,136.89403 31.6015508,136.765519 C30.8956684,136.26754 30.2058289,135.76153 29.5320321,135.23062 C29.1790909,134.965567 28.8341711,134.700514 28.4892513,134.4202 L27.5748128,133.689296 C27.1657219,133.351955 26.7646524,133.014615 26.3635829,132.669243 C26.2272193,132.555993 26.0908556,132.436317 25.954492,132.315838 C24.8074332,131.32711 23.6924599,130.291796 22.6095722,129.223551 L21.1175936,127.729615 C8.09887701,114.235998 0.0855080214,95.8670085 0.0855080214,75.6105191 C0.0855080214,34.173067 33.6309626,0.576370213 75.0133155,0.576370213 C116.395668,0.576370213 149.949144,34.173067 149.949144,75.6105191" id="Fill-1" fill="#BEB7D7"></path>
                <path d="M130.19262,126.363707 C129.494759,127.134771 128.780856,127.882543 128.042888,128.621479 C126.734599,129.929878 125.379786,131.190888 123.984064,132.404511 C123.694492,132.652697 123.406524,132.902489 123.109733,133.134612 C122.755989,133.447856 122.395829,133.737005 122.034866,134.026154 C121.738075,133.921739 121.449305,133.801261 121.160535,133.673553 C119.564278,132.965941 118.409198,132.628601 117.09369,132.427803 C116.259465,132.307324 115.36107,132.227005 114.254118,132.16275 C113.476043,132.114559 112.697166,132.06717 111.919893,132.010144 C108.253316,131.78525 104.580321,131.544293 100.914545,131.287271 C100.738075,131.279239 100.561604,131.271207 100.385134,131.247112 C98.933262,131.158761 97.4886096,131.054346 96.0375401,130.949931 C95.788877,130.933867 95.5482353,130.917803 95.2995722,130.901739 C87.7354011,130.355569 80.6685561,131.279239 73.0963636,131.905729 C70.4573262,132.130622 67.8094652,132.347484 65.1551872,132.548282 C64.7300535,132.588441 64.3049198,132.620569 63.8797861,132.644665 C57.7113369,133.12658 51.5188235,133.560303 45.3343316,133.88158 C41.3067914,134.09041 37.2808556,134.251048 33.2533155,134.339399 C33.0696257,134.347431 32.8931551,134.355463 32.7086631,134.355463 C31.762139,134.379559 30.8075936,134.395622 29.8610695,134.403654 C29.4038503,134.412489 28.946631,134.419718 28.4894118,134.419718 L27.5749733,133.688814 C27.1658824,133.351473 26.7648128,133.014133 26.3637433,132.669564 C26.2273797,132.556314 26.091016,132.436638 25.9546524,132.315356 C24.8075936,131.327431 23.6918182,130.292117 22.6097326,129.223872 L21.117754,127.729133 C23.1792513,122.604771 22.7942246,116.508548 25.2960963,111.496633 C26.4519786,109.183441 28.1926203,107.183495 29.2033155,104.806048 C30.3583957,102.099293 30.4706952,99.1041915 30.1017112,96.2199309 C29.9172193,94.7018989 29.5642781,93.2320585 29.2273797,91.7461543 C28.9305882,90.4048245 28.3370053,89.0233351 28.7701604,87.6338138 C29.0509091,86.7101436 29.7407487,85.9631755 30.5428877,85.4330691 C31.1685561,85.0073777 31.8583957,84.7583883 32.5402139,84.4531755 C33.1257754,84.1961543 33.5669519,83.746367 34.0963636,83.3608351 C35.3557219,82.4612606 36.6712299,81.6347766 38.0268449,80.8870053 C40.7300535,79.409133 43.6017112,78.2445053 46.5696257,77.4011543 C53.5562567,75.4012074 60.8637433,74.7666862 68.1231016,74.3570585 C77.1872727,73.8510479 86.2674866,73.6743457 95.3477005,73.4976436 C98.973369,73.4341915 102.679251,73.3699362 106.128449,74.4855691 C112.008128,76.389133 116.379786,81.3126968 120.935936,85.2884947 C121.208663,85.5294521 121.48861,85.7623777 121.77016,86.0033351 C127.504652,90.8144521 128.026845,97.3443989 127.962674,104.283973 C127.914545,109.054931 128.323636,113.87408 128.580321,118.604878 C128.724706,121.256213 129.27016,123.873814 130.19262,126.363707" id="Fill-3" fill="#834613"></path>
                <path d="M128.043128,128.621157 C126.73484,129.93036 125.380027,131.190567 123.983503,132.404189 C123.694733,132.653179 123.406765,132.902168 123.109973,133.13429 C122.75623,133.448338 122.39607,133.736684 122.035107,134.025833 C121.529759,134.435461 121.015588,134.845891 120.495,135.23062 C120.141257,135.51254 119.772273,135.785626 119.41131,136.050679 C117.004893,137.825732 114.494198,139.464243 111.887246,140.942115 C108.799813,142.693072 105.56639,144.234397 102.222273,145.53637 C102.20623,145.543599 102.190187,145.552434 102.174144,145.552434 C101.52361,145.808652 100.865856,146.058445 100.208904,146.282535 C98.9976738,146.725094 97.7784225,147.126689 96.5423262,147.487322 C89.7321658,149.536264 82.5129144,150.635833 75.0458021,150.635833 L75.0137166,150.635833 C74.7810963,150.635833 74.5484759,150.635833 74.3158556,150.627801 C73.8899198,150.627801 73.4655882,150.620572 73.0404545,150.603705 C72.887246,150.603705 72.7276203,150.595673 72.5752139,150.595673 L72.0530214,150.588445 L72.1099733,150.572381 C71.0423262,150.540253 69.9754813,150.475998 68.9174599,150.387647 C63.0289572,149.913764 57.3345722,148.756365 51.9032888,146.998179 C50.0832353,146.411046 48.2936631,145.753232 46.5377807,145.022328 C43.1359091,143.632003 39.8712032,141.986264 36.7436631,140.122056 C36.4621123,139.961418 36.189385,139.792748 35.9094385,139.624078 C34.6171925,138.829721 33.3586364,138.002434 32.1233422,137.134987 C31.9460695,137.013705 31.7695989,136.89403 31.6019519,136.765519 C30.8960695,136.26754 30.2054278,135.76153 29.531631,135.23062 C29.179492,134.965567 28.8337701,134.700514 28.4896524,134.4202 L27.5752139,133.689296 C27.1653209,133.351955 26.7642513,133.014615 26.3631818,132.669243 C26.2268182,132.555993 26.0904545,132.436317 25.9540909,132.315838 C24.8078342,131.32711 23.6920588,130.291796 22.6099733,129.223551 C23.5725401,128.58903 24.558369,127.945673 25.5209358,127.223604 C28.729492,124.692748 31.0564973,121.641423 33.3097059,118.468014 C33.9754813,117.536312 34.6340374,116.596578 35.3078342,115.649615 C40.3452674,108.524503 43.3043583,100.805833 48.9361765,93.9875404 C49.9388503,92.8381734 50.9736096,91.8020564 52.0404545,90.8623223 C58.2570321,85.4174872 65.4995455,83.4577 73.7784225,82.9034979 L73.7856417,82.9034979 C75.8158556,82.7661521 77.900615,82.7107319 80.0511497,82.7107319 C80.5163904,82.7107319 80.9808289,82.7107319 81.4380481,82.7187638 C89.5637166,82.7982798 96.4388503,83.7066894 102.623342,88.8463117 C103.409439,89.4977 104.187513,90.2197691 104.949545,91.0157319 C112.232968,98.3167426 111.069866,109.038546 115.296337,117.376477 C115.873877,118.532269 116.563717,119.640673 117.397941,120.693657 C120.373877,124.251796 124.465588,126.428445 128.043128,128.621157" id="Fill-5" fill="#433028"></path>
                <path d="M26.3633422,132.669243 C27.5112032,131.335945 28.7866043,130.066902 30.0860695,128.81312 C30.9034492,128.034024 31.7296524,127.263764 32.5478342,126.484668 C34.4809893,124.653391 36.3419519,122.81328 37.8106684,120.838232 C37.9141444,120.701689 37.6743048,120.516152 37.5612032,120.653498 C36.1253743,122.419716 34.5050535,124.026099 32.8446257,125.592322 C32.0745722,126.32403 31.2964973,127.046902 30.5192246,127.768971 C28.9382086,129.238812 27.382861,130.724716 25.9542513,132.315838 L26.3633422,132.669243 Z" id="Fill-7" fill="#2C1E1A"></path>
                <path d="M36.3822995,129.905943 C35.2673262,131.23924 34.1202674,132.733177 33.2539572,134.33956 C32.7646524,135.239134 32.3716043,136.170836 32.1229412,137.134666 C31.9464706,137.014187 31.77,136.893709 31.6015508,136.765198 C31.8903209,135.945943 32.2673262,135.142751 32.7085027,134.355623 C33.638984,132.652857 34.8582353,131.054506 36.1577005,129.689081 C36.3020856,129.536474 36.5106417,129.753336 36.3822995,129.905943" id="Fill-9" fill="#2C1E1A"></path>
                <path d="M36.7434225,140.122297 C36.4618717,139.961659 36.1899465,139.792989 35.9091979,139.624319 C35.7808556,138.532781 35.7648128,137.399478 35.8923529,136.21959 C35.9172193,136.009957 36.2460963,135.993893 36.2380749,136.21959 C36.2220321,137.56092 36.4145455,138.853255 36.7434225,140.122297" id="Fill-11" fill="#2C1E1A"></path>
                <path d="M100.810348,126.227245 L100.810348,126.235277 C100.802326,126.556554 100.786283,126.869798 100.770241,127.191075 C100.690027,128.564532 100.553663,129.921926 100.385214,131.247192 C100.272914,132.082511 100.144572,132.90257 100.008209,133.705761 L100.008209,133.71299 C99.6945722,135.544266 99.3255882,137.287995 98.9245187,138.926506 C98.9092781,138.99799 98.8924332,139.070277 98.8771925,139.134532 C98.5555348,140.46783 98.2194385,141.720809 97.8825401,142.877405 C97.7702406,143.287032 97.6499198,143.688628 97.5376203,144.07416 C97.2007219,145.222724 96.8638235,146.363256 96.5429679,147.487724 C89.7320053,149.536665 82.512754,150.636235 75.0456417,150.636235 L75.0135561,150.636235 C74.7809358,150.636235 74.5483155,150.636235 74.3156952,150.628203 C73.8897594,150.628203 73.4654278,150.620171 73.0402941,150.604107 C72.8870856,150.604107 72.7274599,150.596075 72.5750535,150.596075 L72.052861,150.588043 L72.1098128,150.572782 C71.0429679,150.540655 69.976123,150.475596 68.9172995,150.387245 C63.0287968,149.913362 57.3344118,148.756766 51.9031283,146.997777 C50.0830749,146.411447 48.2935027,145.753634 46.5376203,145.021926 C46.5295989,144.981766 46.5207754,144.941607 46.5135561,144.901447 C46.4333422,144.507884 46.3523262,144.115123 46.2809358,143.713527 C46.2007219,143.303096 46.1285294,142.885437 46.0643583,142.459745 C45.8638235,141.198735 45.7033957,139.865437 45.5822727,138.475915 C45.4459091,137.014107 45.3664973,135.488043 45.3344118,133.88166 C45.3103476,132.669644 45.3175668,131.415862 45.3496524,130.122724 C45.4787968,125.19916 45.9512567,120.934213 46.6892246,117.231501 C47.0349465,115.464479 47.4440374,113.826772 47.9172995,112.307937 L47.9172995,112.299905 C48.1659626,111.448522 48.4386898,110.653362 48.7266578,109.882298 C51.2943048,102.974852 55.0074064,98.9107027 58.7702406,96.5581548 C58.9707754,96.4368729 59.1632888,96.3163941 59.355,96.2039473 C59.9012567,95.8826707 60.4386898,95.6015537 60.976123,95.3605963 L60.9841444,95.3605963 C64.673984,93.6417665 68.2033957,93.3767133 70.512754,93.4570324 C71.1392246,93.4730963 71.6686364,93.5212878 72.0937701,93.5694793 C72.7836096,93.6497984 73.1766578,93.7381495 73.1766578,93.7381495 C73.9066043,93.874692 74.6277273,94.0272984 75.318369,94.1799048 C77.0269251,94.5654367 78.6231818,95.0152239 80.1231818,95.5132027 C80.3878877,95.6015537 80.6437701,95.6899048 80.9012567,95.7782559 C83.331738,96.6376707 85.4886898,97.649692 87.3905615,98.7741601 C87.9921658,99.1363995 88.5608824,99.4970324 89.107139,99.8745324 C89.2836096,99.9950112 89.4600802,100.11549 89.6285294,100.244001 C90.8959091,101.151607 92.0269251,102.115437 93.0448396,103.152357 C93.318369,103.416607 93.5830749,103.697724 93.8397594,103.978841 C94.8745187,105.119373 95.7729144,106.316128 96.5429679,107.561075 C96.936016,108.187564 97.2969786,108.822086 97.6250535,109.472671 C99.3424332,112.846075 100.264091,116.484532 100.641898,120.163149 C100.673984,120.46033 100.697246,120.765543 100.722112,121.070756 C100.770241,121.649054 100.802326,122.235384 100.818369,122.813681 C100.865695,123.954213 100.858476,125.094745 100.810348,126.227245" id="Fill-13" fill="#ECD6C7"></path>
                <path d="M111.887567,140.941954 C108.799332,142.692912 105.566711,144.235039 102.221791,145.53621 C102.21377,145.53621 102.197727,145.53621 102.181684,145.520146 C101.459759,145.310513 100.738636,144.998071 100.039973,144.564348 C99.293984,144.130624 98.5720588,143.56839 97.8822193,142.877646 C97.1843583,142.170034 96.5105615,141.319454 95.9009358,140.315465 C95.9009358,138.668922 96.5185829,135.383869 97.5372995,134.564614 C98.1790107,134.074667 99.0372995,133.809614 100.000668,133.705199 L100.007888,133.705199 C100.056016,133.696364 100.104947,133.696364 100.160294,133.696364 C103.168316,133.431311 107.130882,134.725252 108.815374,135.801529 C111.21377,137.432007 112.072059,139.279348 111.887567,140.941954" id="Fill-15" fill="#ECD6C7"></path>
                <path d="M98.7195722,139.003773 C100.222781,140.30414 102.390963,141.268773 104.373048,141.268773 C105.054866,141.268773 106.831604,140.996491 106.489893,139.901741 C106.148984,138.94514 103.005401,138.670448 102.185615,138.601374 C101.161283,138.533906 99.8209091,138.542741 98.7195722,139.003773" id="Fill-17" fill="#CDA78D"></path>
                <path d="M75.0932888,125.445258 C75.0932888,125.445258 84.8136096,117.253508 91.6021123,127.296614 C91.6021123,127.296614 84.4245722,132.342263 75.0932888,125.445258" id="Fill-19" fill="#FEFEFE"></path>
                <path d="M47.7171658,127.245371 C47.7171658,127.245371 55.951123,117.279371 63.5024599,125.719307 C63.5024599,125.719307 58.2853476,132.029179 47.7171658,127.245371" id="Fill-21" fill="#FEFEFE"></path>
                <path d="M85.4944652,124.898526 C85.8818984,126.201302 85.2281551,127.546648 84.0361765,127.902462 C82.8425936,128.259079 81.3056952,127.353079 80.9190642,126.049499 C80.531631,124.746722 81.4380481,123.539526 82.6324332,123.182909 C83.8252139,122.827095 85.1078342,123.594946 85.4944652,124.898526" id="Fill-23" fill="#9E5D38"></path>
                <path d="M83.728877,126.430372 C83.2347594,126.714702 82.6235294,126.577356 82.3636364,126.123553 C82.1029412,125.671356 82.3243316,124.955713 82.8176471,124.672186 C83.3109626,124.387053 83.890107,124.641665 84.1508021,125.095468 C84.4122995,125.547665 84.2213904,126.146043 83.728877,126.430372" id="Fill-25" fill="#753F26"></path>
                <path d="M83.3536364,124.011401 C83.6568449,123.835502 83.9993583,123.959193 84.1629947,124.236294 C84.3258289,124.512592 84.2311765,124.910975 83.9263636,125.086071 C83.6223529,125.263576 83.2621925,125.109363 83.1001604,124.832262 C82.9357219,124.555161 83.0488235,124.188103 83.3536364,124.011401" id="Fill-27" fill="#FEFEFE"></path>
                <path d="M59.8268182,125.333052 C60.2142513,126.635026 59.560508,127.981174 58.3685294,128.336988 C57.1741444,128.693605 55.6380481,127.786802 55.250615,126.483222 C54.863984,125.179643 55.7704011,123.972446 56.963984,123.616632 C58.1567647,123.261621 59.439385,124.029472 59.8268182,125.333052" id="Fill-29" fill="#9E5D38"></path>
                <path d="M58.0611497,126.864899 C57.5670321,127.148426 56.955,127.011883 56.695107,126.55808 C56.4352139,126.105883 56.6566043,125.389436 57.1499198,125.10591 C57.6432353,124.82158 58.2223797,125.075388 58.4822727,125.529191 C58.7437701,125.981388 58.5536631,126.580569 58.0611497,126.864899" id="Fill-31" fill="#753F26"></path>
                <path d="M57.6851872,124.445204 C57.9891979,124.268502 58.3317112,124.392997 58.4945455,124.669295 C58.6581818,124.947199 58.5627273,125.344779 58.2587166,125.520678 C57.9547059,125.698183 57.5945455,125.543167 57.4317112,125.266066 C57.2672727,124.988965 57.3811765,124.621906 57.6851872,124.445204" id="Fill-33" fill="#FEFEFE"></path>
                <path d="M79.9547326,141.875343 C80.4624866,138.915582 83.5956417,136.481912 86.5499198,136.990332 C89.505,137.497146 91.4902941,140.307513 90.9825401,143.266471 C90.4763904,146.226231 87.7122193,147.969157 84.7555348,147.462343 C81.8020588,146.954726 79.4485829,144.833497 79.9547326,141.875343" id="Fill-35" fill="#EAB5A7"></path>
                <path d="M53.4762834,144.090385 C53.2757487,145.278305 52.7054278,146.267034 51.9032888,146.997938 C50.0832353,146.411608 48.2936631,145.752991 46.5377807,145.022087 C46.5297594,144.981124 46.5209358,144.941768 46.5129144,144.901608 C46.4335027,144.508044 46.3524866,144.11448 46.2802941,143.712885 C46.2008824,143.303257 46.1286898,142.885597 46.0645187,142.459906 C45.863984,141.198092 45.7035561,139.865597 45.5824332,138.476076 C46.6492781,137.881714 47.8613102,137.608629 49.0476738,137.809427 C51.9995455,138.315438 53.9896524,141.126608 53.4762834,144.090385" id="Fill-37" fill="#EAB5A7"></path>
                <path d="M67.2466043,121.895152 C66.0353743,128.524694 62.3647861,134.544614 61.7623797,141.296242 C61.4695989,144.579689 63.5487433,145.761184 66.5984759,145.157184 C67.0059626,145.076061 67.0244118,144.382907 66.5984759,144.317848 C61.0115775,143.459237 63.523877,137.711598 64.6685294,134.075551 C65.9343048,130.053168 67.3412567,126.18821 67.8698663,121.979487 C67.9147861,121.624476 67.3107754,121.54496 67.2466043,121.895152" id="Fill-39" fill="#A78066"></path>
                <path d="M79.4768984,117.440812 C83.0271658,118.497009 86.8397326,119.701796 89.9488235,121.71861 C90.1966845,121.880052 90.418877,121.600541 90.2616578,121.394121 C87.6980214,118.03678 84.3226203,116.454493 80.2180749,115.281834 C78.6603209,114.837669 77.9095187,116.974158 79.4768984,117.440812" id="Fill-41" fill="#2C1E1A"></path>
                <path d="M58.477139,114.774698 C55.0929144,115.414039 52.303877,116.560996 50.1717914,119.511922 C50.0338235,119.704688 50.2463904,119.977773 50.4437166,119.855688 C53.0386364,118.25814 56.2191176,117.548922 59.1701872,116.949741 C60.4688503,116.686294 59.7557487,114.532938 58.477139,114.774698" id="Fill-43" fill="#2C1E1A"></path>
                <path d="M102.197647,145.343042 C102.197647,145.407297 102.189626,145.463521 102.181604,145.520547 C102.181604,145.535808 102.181604,145.54384 102.174385,145.552675 C101.52385,145.808893 100.866096,146.058686 100.209144,146.282776 C99.9275936,146.065914 99.751123,145.721345 99.751123,145.343042 C99.751123,145.045861 99.8554011,144.772776 100.040695,144.563946 C100.256471,144.290861 100.602193,144.114962 100.971176,144.114962 C101.63615,144.114962 102.197647,144.676393 102.197647,145.343042" id="Fill-45" fill="#FEFEFE"></path>
                <path d="M75.0400267,84.3498851 C73.5689037,81.8061777 69.6921658,80.7355234 67.0186364,80.0664649 C70.628262,79.1291404 73.0346791,80.1997947 76.2432353,81.5387149 C78.7828075,78.5934117 83.0116845,75.5645766 87.0223797,75.9661723 C85.7686364,76.7693638 84.3977807,78.191816 83.5956417,79.3966032 C82.2592781,81.2712521 81.2397594,82.8945021 80.3036631,84.9016777 C79.5015241,86.5088638 80.9221123,86.8935926 78.5156952,86.4919968 C77.3124866,86.3578638 75.7082086,86.2237309 74.7721123,85.4205394 L75.0400267,84.3498851 Z" id="Fill-47" fill="#433028"></path>
                <path d="M34.7114439,128.702681 C38.5641176,122.470719 43.0095722,119.208155 48.9365775,115.943181 C56.0491444,111.788272 60.7905882,106.150671 64.9400535,99.6223303 C65.2360428,103.776437 62.5689305,107.040607 60.1978075,110.008399 C66.4216043,109.414841 72.6454011,101.105825 76.2012834,96.6545378 C77.6820321,102.292942 79.4603743,107.634969 83.0170588,112.382634 C83.6098396,110.898336 84.2026203,108.821282 85.3881818,107.336985 C88.0552941,113.568947 88.2774866,122.174341 92.722139,127.515564 C95.3900535,130.483357 95.6675936,130.965272 100.131497,133.785277 C104.28016,121.322155 105.540321,107.931346 96.3534225,97.8416548 C91.3151872,92.2040537 83.3138503,83.5986601 75.0149198,84.4885963 C70.8670588,85.0813516 67.6071658,88.346325 63.754492,89.2362612 C61.383369,90.1270005 59.012246,89.5326388 56.6419251,90.1270005 C47.1590374,93.0939899 37.6745455,112.086256 37.9713369,121.284405 L34.7114439,128.702681 Z" id="Fill-49" fill="#433028"></path>
                <path d="M123.983824,132.404109 C123.695053,132.653098 123.406283,132.902088 123.109492,133.13421 C120.799332,130.974428 118.104144,130.042726 115.184358,128.854003 C115.072059,128.81304 114.959759,128.765652 114.840241,128.716657 C111.406283,127.311072 108.32607,125.376184 106.649599,122.13129 C106.649599,122.122455 106.649599,122.114423 106.641578,122.107194 C106.35361,121.561024 106.112166,120.981923 105.911631,120.364269 C104.796658,116.878418 104.612968,113.23996 104.195053,109.640859 C103.986497,107.865806 103.729813,106.099588 103.280615,104.364694 C101.572861,97.7624601 98.3153743,91.5377261 92.0747326,88.2767686 C91.753877,88.1080984 92.0346257,87.6342154 92.3635027,87.7860186 C97.6816845,90.3329388 101.499866,95.2476676 103.36885,100.805753 C105.366176,106.766237 104.764572,113.143577 106.65762,119.063098 C108.101471,123.585066 111.077406,125.929582 115.184358,127.64038 C115.521257,127.785758 115.874198,127.922301 116.227139,128.058843 C118.786765,129.030705 121.681684,129.977668 123.622861,132.010545 C123.751203,132.139056 123.871524,132.275598 123.983824,132.404109" id="Fill-51" fill="#2C1E1A"></path>
                <path d="M80.5767112,90.7840915 C79.5628075,94.947033 80.3344652,99.3147883 81.4590642,103.383756 C81.5809893,103.825512 82.1809893,103.62632 82.1240374,103.199826 C81.5641444,99.061783 80.2526471,95.1181128 80.9994385,90.9005543 C81.048369,90.626666 80.644893,90.5045809 80.5767112,90.7840915" id="Fill-53" fill="#2C1E1A"></path>
                <path d="M89.0539572,92.6492628 C88.6416578,99.4547043 89.5921925,106.362954 91.3978075,112.916997 C92.7935294,117.982726 95.5296257,125.609029 101.151016,127.31822 C101.544064,127.437896 101.723743,126.902167 101.416524,126.687715 C91.5028877,119.785087 89.1983422,103.971853 89.3675936,92.6492628 C89.3708021,92.4452521 89.0659893,92.4492681 89.0539572,92.6492628" id="Fill-55" fill="#2C1E1A"></path>
                <path d="M120.49484,135.231022 C120.141898,135.512942 119.772914,135.785224 119.41115,136.05108 C117.398583,133.897724 114.734679,133.054373 111.919973,132.010224 C111.90393,132.002192 111.887888,132.002192 111.871845,131.99416 C108.109813,130.604639 104.772112,128.59666 102.397781,125.343735 C102.214091,125.102777 102.036818,124.845756 101.868369,124.588735 C101.492166,124.010437 101.147246,123.416075 100.818369,122.813681 C99.3825401,120.171181 98.3870856,117.343947 97.6892246,114.42033 C97.1517914,112.179426 96.791631,109.874266 96.5429679,107.561075 C96.173984,104.139479 96.0295989,100.685756 95.9012567,97.3364473 C95.8932353,97.175809 95.8932353,97.0232027 95.8844118,96.8625644 C95.8771925,96.6778303 96.1491176,96.6858622 96.173984,96.8625644 C96.2060695,97.1517133 96.2381551,97.4488941 96.2702406,97.7541069 C96.6544652,101.352405 96.9681016,105.432618 97.6250535,109.472671 C98.2354813,113.199479 99.133877,116.89416 100.641898,120.163149 C101.219439,121.432192 101.893235,122.636979 102.679332,123.745384 C102.871043,124.026501 103.071578,124.291554 103.280936,124.556607 C104.106337,125.61682 105.036818,126.580649 106.104465,127.432032 C109.183877,129.89783 113.612487,130.548415 117.09377,132.427884 C118.175856,133.014213 119.17131,133.721022 119.997513,134.63666 C120.173984,134.829426 120.342433,135.030224 120.49484,135.231022" id="Fill-57" fill="#2C1E1A"></path>
                <path d="M67.0781551,102.102505 C69.1484759,101.014984 70.2634492,99.0535904 71.1177273,96.9395904 C71.8941979,95.020766 72.8415241,91.5509787 71.7690642,89.6008298 C71.5749465,89.2482287 71.0054278,89.3197128 70.9099733,89.7124734 C70.4663904,91.5461596 70.6998128,93.4955053 70.2241444,95.3757766 C69.6401872,97.6793298 68.5637166,100.09292 66.7741444,101.708941 C66.5551604,101.906527 66.8343048,102.231016 67.0781551,102.102505" id="Fill-59" fill="#2C1E1A"></path>
                <path d="M40.9444652,116.168557 C54.3201337,111.973488 57.1524866,95.4879824 68.1040909,88.4889718 C68.3792246,88.3130729 68.2059626,87.831158 67.8746791,87.944408 C62.4899198,89.7821101 59.4401872,95.7803441 56.3535561,100.146493 C52.1936631,106.029871 47.5396524,112.714834 40.7631818,115.738849 C40.5185294,115.848887 40.6941979,116.248073 40.9444652,116.168557" id="Fill-61" fill="#2C1E1A"></path>
                <path d="M47.8057219,103.722221 C50.2514439,95.7882957 56.8257754,90.8815989 64.1172193,87.7266628 C64.4870053,87.5668277 64.2174866,87.0045936 63.8517112,87.0961574 C56.2506417,88.9932957 49.41,96.1087691 47.5939572,103.664391 C47.5610695,103.80254 47.7640107,103.857961 47.8057219,103.722221" id="Fill-63" fill="#2C1E1A"></path>
                <path d="M83.5925134,85.8221351 C83.5427807,89.2605979 84.0778075,92.7287787 85.3748663,95.9246777 C85.4871658,96.2033851 85.8826203,96.102183 85.8272727,95.7993798 C85.2096257,92.4388266 84.1516043,89.2710394 84,85.8221351 C83.9879679,85.5602947 83.5965241,85.5578851 83.5925134,85.8221351" id="Fill-65" fill="#2C1E1A"></path>
                <path d="M76.1570856,86.6253266 C76.1258021,88.6935447 75.9894385,90.7882681 76.1731283,92.8500606 C76.1963904,93.1127043 76.5565508,93.1127043 76.5798128,92.8500606 C76.7635027,90.7882681 76.627139,88.6935447 76.5958556,86.6253266 C76.5918449,86.3418 76.1618984,86.3418 76.1570856,86.6253266" id="Fill-67" fill="#2C1E1A"></path>
                <path d="M86.3263636,67.9597989 C92.9255615,62.3952883 102.570481,65.8610596 105.037861,75.1861128 C111.811123,71.5372138 119.744278,82.5714585 119.197219,91.4836713 L28.6437433,88.5953947 C29.149893,77.3081447 35.2389305,74.4399479 42.8031016,75.1861128 C45.2704813,65.8618628 54.9162032,62.3952883 61.5145989,67.9597989 C66.995615,56.9865968 80.8445455,56.9874 86.3263636,67.9597989" id="Fill-69" fill="#834613"></path>
                <path d="M73.9214439,59.6721479 C79.2227807,59.6729511 83.851123,63.0053926 86.3265241,67.9594777 C92.9249198,62.3973766 102.570642,65.8599351 105.038021,75.1857915 C111.812888,71.5384989 119.746043,77.5865309 119.196578,86.4995468 L73.9214439,86.4995468 L73.9214439,59.6721479 Z" id="Fill-71" fill="#6B3B0F"></path>
                <path d="M105.616925,71.0063043 C107.622273,61.4676021 97.8939305,66.0249106 99.7195989,52.9682298 C100.88992,64.4924213 110.402487,59.9310968 105.616925,71.0063043" id="Fill-73" fill="#EFC07D"></path>
                <path d="M29.0376738,61.3083293 C34.2579947,59.8730261 36.2858021,60.4159835 38.8767112,63.2351856 C40.8267112,59.893909 41.4146791,57.6433665 50.5727005,55.0201431 C44.5895455,58.8561856 41.7989037,61.2914622 40.1224332,68.2872601 C36.5095989,64.0600633 33.8713636,62.0882282 29.0376738,61.3083293" id="Fill-75" fill="#6B3B0F"></path>
                <path d="M130.604599,72.0918176 C126.484813,70.9585144 124.883743,71.3874186 122.838289,73.6138654 C121.299786,70.9745782 120.83615,69.1979186 113.607273,67.1280941 C118.328663,70.1561261 120.531337,72.0781633 121.855668,77.600908 C124.707273,74.2644505 126.789626,72.7078654 130.604599,72.0918176" id="Fill-77" fill="#6B3B0F"></path>
                <path d="M86.0976738,67.1518686 L89.1554278,68.9927835 C89.7562299,69.3550229 89.9519519,70.1429537 89.5901872,70.7445441 L82.9171925,81.8526824 C82.5562299,82.4542729 81.7693316,82.6502516 81.1685294,82.2880122 L78.1115775,80.4470973 C77.5115775,80.0856612 77.3150535,79.2977303 77.6768182,78.6953367 L84.3490107,67.5880016 C84.7107754,66.9864112 85.4976738,66.7896293 86.0976738,67.1518686" id="Fill-79" fill="#057965"></path>
                <path d="M89.7081016,63.1916527 L90.9578342,63.9442431 C91.2016845,64.0912271 91.2818984,64.4133069 91.1343048,64.6582803 L83.6848396,77.0611633 C83.537246,77.3061367 83.2155882,77.3864559 82.9701337,77.2386686 L81.7220053,76.4868814 C81.4765508,76.3390941 81.3963369,76.0178176 81.5439305,75.772041 L88.9941979,63.3699612 C89.1417914,63.1233814 89.4626471,63.0438654 89.7081016,63.1916527" id="Fill-81" fill="#057965"></path>
                <path d="M88.6967647,68.7167266 L89.1547861,68.9930245 C89.7555882,69.3544606 89.9513102,70.1423915 89.5903476,70.7439819 L82.9173529,81.8521202 C82.5563904,82.4545138 81.7686898,82.6504926 81.1686898,82.28745 L79.640615,81.3677957 L82.3462299,76.8634979 L87.6267112,68.072567 L90.3323262,63.5682691 L90.9571925,63.9441628 C91.2018449,64.0911468 91.2820588,64.4132266 91.1344652,64.6582 L88.6967647,68.7167266 Z" id="Fill-83" fill="#086652"></path>
                <path d="M89.4770053,62.8880463 L91.3331551,64.006892 C91.5136364,64.1145197 91.5721925,64.350658 91.4647059,64.5313761 L91.0307487,65.252642 C90.9224599,65.4333601 90.686631,65.4927963 90.5061497,65.3835622 L88.6491979,64.2655197 C88.4687166,64.1570888 88.4101604,63.9209505 88.5192513,63.7402324 L88.9516043,63.0189665 C89.0606952,62.8382484 89.2965241,62.7796154 89.4770053,62.8880463" id="Fill-85" fill="#D95714"></path>
                <path d="M90.4052406,63.4473085 L91.3333155,64.0063298 C91.5137968,64.1147606 91.5723529,64.3508989 91.463262,64.531617 L91.030107,65.252883 C90.9226203,65.4336011 90.6867914,65.492234 90.5047059,65.3838032 L89.5782353,64.8247819 L90.4052406,63.4473085 Z" id="Fill-87" fill="#C94F17"></path>
                <path d="M58.2585561,77.404367 L60.0128342,74.2936064 C60.3569519,73.6815745 61.1374332,73.4647128 61.7486631,73.8092819 L73.0219251,80.1818032 C73.6331551,80.5271755 73.8497326,81.3086809 73.505615,81.9207128 L71.7513369,85.0306702 C71.4080214,85.6427021 70.6259358,85.860367 70.015508,85.5149947 L58.742246,79.1432766 C58.1318182,78.7971011 57.9136364,78.0155957 58.2585561,77.404367" id="Fill-89" fill="#057965"></path>
                <path d="M54.2063904,73.8998016 L54.9218984,72.6291527 C55.0622727,72.3793601 55.3815241,72.291009 55.6309893,72.4315676 L68.2173529,79.5462378 C68.4668182,79.6867963 68.5558556,80.0072697 68.4154813,80.256259 L67.6991711,81.526908 C67.5579947,81.7767005 67.2395455,81.8650516 66.9900802,81.7244931 L54.4037166,74.6098229 C54.1542513,74.4692644 54.0644118,74.1495941 54.2063904,73.8998016" id="Fill-91" fill="#057965"></path>
                <path d="M59.7492513,74.7594574 L60.0123529,74.2936064 C60.3572727,73.6815745 61.1385561,73.4647128 61.7481818,73.8092819 L73.022246,80.1818032 C73.6334759,80.5271755 73.8500535,81.3086809 73.5051337,81.9207128 L72.63,83.4756915 L68.0570053,80.8910213 L59.1364171,75.8485851 L54.5642246,73.2639149 L54.9211765,72.6293936 C55.0623529,72.3796011 55.3816043,72.29125 55.6310695,72.4318085 L59.7492513,74.7594574 Z" id="Fill-93" fill="#086652"></path>
                <path d="M53.9095187,74.1397952 L54.9739572,72.2506888 C55.0774332,72.0675612 55.3116578,72.0025027 55.4953476,72.1061144 L56.2268984,72.5189548 C56.4097861,72.6225665 56.4755615,72.8570984 56.3712834,73.0410293 L55.3068449,74.9301356 C55.203369,75.1140665 54.9691444,75.179125 54.7862567,75.0755133 L54.0547059,74.6610665 C53.871016,74.558258 53.8052406,74.3237261 53.9095187,74.1397952" id="Fill-95" fill="#D95714"></path>
                <path d="M54.442139,73.1954027 L54.9739572,72.2508495 C55.0774332,72.0677218 55.3116578,72.0026633 55.4945455,72.106275 L56.2268984,72.5191154 C56.4097861,72.6227271 56.4755615,72.8580622 56.3712834,73.0411899 L55.8394652,73.9849399 L54.442139,73.1954027 Z" id="Fill-97" fill="#C94F17"></path>
                <path d="M97.5657754,75.8567777 C102.489305,72.6624851 109.682888,74.6519904 111.522995,80.0044585 C116.576471,77.9113415 122.493048,86.3681447 122.085561,91.4844745 L54.5406417,91.4844745 C54.1323529,86.3673415 60.0489305,77.9113415 65.1016043,80.0052617 C66.9425134,74.6519904 74.1368984,72.6624851 79.0596257,75.8567777 C83.1473262,69.55815 93.4772727,69.55815 97.5657754,75.8567777" id="Fill-99" fill="#944D15"></path>
                <path d="M88.3137433,71.0996351 C92.2682888,71.0996351 95.719893,73.0128372 97.565615,75.8569383 C102.489144,72.6634489 109.683529,74.6513479 111.523636,80.0046191 C116.57631,77.9106989 122.49369,86.3675021 122.086203,91.4846351 L88.3137433,91.4846351 L88.3137433,71.0996351 Z" id="Fill-101" fill="#834613"></path>
                <path d="M40.7783422,90.2083638 L40.7783422,86.6357681 C40.7783422,85.9337787 41.3518717,85.3603 42.0529412,85.3603 L54.9986631,85.3603 C55.6997326,85.3603 56.2724599,85.9337787 56.2724599,86.6357681 L56.2724599,90.2083638 C56.2724599,90.9103532 55.6997326,91.4838319 54.9986631,91.4838319 L42.0529412,91.4838319 C41.3518717,91.4838319 40.7783422,90.9103532 40.7783422,90.2083638" id="Fill-103" fill="#057965"></path>
                <path d="M35.5292246,89.1517654 L35.5292246,87.6931697 C35.5292246,87.4056271 35.7626471,87.1718984 36.0482086,87.1718984 L50.502754,87.1718984 C50.7883155,87.1718984 51.0233422,87.4056271 51.0233422,87.6931697 L51.0233422,89.1517654 C51.0233422,89.4377016 50.7883155,89.6722335 50.502754,89.6722335 L36.0482086,89.6722335 C35.7626471,89.6722335 35.5292246,89.4377016 35.5292246,89.1517654" id="Fill-105" fill="#057965"></path>
                <path d="M40.7783422,87.172059 L40.7783422,86.6355271 C40.7783422,85.934341 41.3518717,85.360059 42.0529412,85.360059 L54.9986631,85.360059 C55.6997326,85.360059 56.2724599,85.934341 56.2724599,86.6355271 L56.2724599,88.421825 L51.023262,88.421825 L40.7783422,88.421825 L35.5291444,88.421825 L35.5291444,87.6925271 C35.5291444,87.4057878 35.7625668,87.172059 36.0489305,87.172059 L40.7783422,87.172059 Z" id="Fill-107" fill="#086652"></path>
                <path d="M35.3882086,89.5063745 L35.3882086,87.3377574 C35.3882086,87.1265181 35.5598663,86.9546351 35.7700267,86.9546351 L36.6114706,86.9546351 C36.821631,86.9546351 36.9932888,87.1265181 36.9932888,87.3377574 L36.9932888,89.5063745 C36.9932888,89.7176138 36.821631,89.8894968 36.6114706,89.8894968 L35.7700267,89.8894968 C35.5598663,89.8894968 35.3882086,89.7176138 35.3882086,89.5063745" id="Fill-109" fill="#D95714"></path>
                <path d="M35.3882086,88.421584 L35.3882086,87.3372755 C35.3882086,87.1268394 35.5598663,86.9549564 35.7700267,86.9549564 L36.6114706,86.9549564 C36.821631,86.9549564 36.9932888,87.1268394 36.9932888,87.3372755 L36.9932888,88.421584 L35.3882086,88.421584 Z" id="Fill-111" fill="#C94F17"></path>
            </g>
            <g id="Group-116" transform="translate(105.000000, 85.000000)">
                <mask id="mask-2" fill="white">
                    <use xlink:href="#path-1"></use>
                </mask>
                <g id="Clip-115"></g>
                <polygon id="Fill-114" fill="#FED802" mask="url(#mask-2)" points="-3.9576875 4.80384615 10.2643125 14.6584615 15.94125 7.31384615 1.71925 -2.54"></polygon>
            </g>
            <g id="Group-123" transform="translate(91.000000, 82.000000)">
                <g id="Group-119">
                    <mask id="mask-4" fill="white">
                        <use xlink:href="#path-3"></use>
                    </mask>
                    <g id="Clip-118"></g>
                    <polygon id="Fill-117" fill="#FED802" mask="url(#mask-4)" points="-2.87248889 2.34694444 10.7020667 12.2815 18.1625111 2.08794444 4.58795556 -7.84661111"></polygon>
                </g>
                <g id="Group-122">
                    <mask id="mask-6" fill="white">
                        <use xlink:href="#path-5"></use>
                    </mask>
                    <g id="Clip-121"></g>
                    <polygon id="Fill-120" fill="#E3C412" mask="url(#mask-6)" points="-2.87248889 2.34694444 10.7020667 12.2815 18.1625111 2.08794444 4.58795556 -7.84661111"></polygon>
                </g>
            </g>
            <g id="Group-126" transform="translate(105.000000, 85.000000)">
                <mask id="mask-8" fill="white">
                    <use xlink:href="#path-7"></use>
                </mask>
                <g id="Clip-125"></g>
                <polygon id="Fill-124" fill="#E3C412" mask="url(#mask-8)" points="-3.78855556 4.80384615 6.73088889 12.4176923 12.166 5.07461538 1.64577778 -2.54"></polygon>
            </g>
            <g id="Group-129" transform="translate(102.000000, 81.000000)">
                <mask id="mask-10" fill="white">
                    <use xlink:href="#path-9"></use>
                </mask>
                <g id="Clip-128"></g>
                <polygon id="Fill-127" fill="#FED802" mask="url(#mask-10)" points="-6.90696 10.80456 10.91464 23.84776 21.16264 9.84456 3.34184 -3.19864"></polygon>
            </g>
            <g id="Group-132" transform="translate(105.000000, 78.000000)">
                <mask id="mask-12" fill="white">
                    <use xlink:href="#path-11"></use>
                </mask>
                <g id="Clip-131"></g>
                <polygon id="Fill-130" fill="#4E4D4D" mask="url(#mask-12)" points="-2.567775 2.3151 1.907475 5.59035 5.182725 1.1151 0.707475 -2.16015"></polygon>
            </g>
            <g id="Group-135" transform="translate(102.000000, 81.000000)">
                <mask id="mask-14" fill="white">
                    <use xlink:href="#path-13"></use>
                </mask>
                <g id="Clip-134"></g>
                <polygon id="Fill-133" fill="#E3C412" mask="url(#mask-14)" points="-6.90696 10.90845 10.91464 24.0770654 20.92984 10.2598731 3.10904 -2.90712692"></polygon>
            </g>
            <path d="M116.918068,114.974844 C116.821584,115.819519 116.499167,116.664193 115.929107,117.285746 C115.767496,117.469024 115.575332,117.636365 115.365479,117.771832 C114.312999,118.465102 112.809457,118.457134 112.005423,119.421337 C111.21747,120.369604 111.498882,121.827862 112.198391,122.839878 C112.8979,123.851893 113.935104,124.577038 114.747178,125.501398 C115.237638,126.059202 115.655735,126.752473 115.816542,127.469649 C115.904182,127.86808 115.913026,128.27448 115.816542,128.672911 C115.792421,128.73666 115.77634,128.792441 115.752219,128.85619 C111.225511,129.095249 108.65984,125.772332 107.260821,122.003172 C107.260821,121.995203 107.260821,121.987235 107.252781,121.979266 C106.88373,120.967251 106.594278,119.923361 106.369148,118.911345 C105.7018,115.843424 105.483907,112.663943 104.801283,109.611959 C104.511027,108.305105 104.133935,107.030125 103.611313,105.794988 C103.168291,104.775004 102.373102,103.643459 101.255495,103.739082 C101.175092,103.747051 101.102729,103.75502 101.029562,103.778926 C100.314776,103.954235 99.7833095,104.655474 99.6393875,105.388588 C99.4705405,106.193419 99.6546642,107.030125 99.8403959,107.826987 C100.475582,110.552257 100.781115,113.420962 101.440423,116.09842 C101.544947,116.536695 102.734113,119.142435 103.602469,121.309901 L103.602469,121.325839 C104.25454,122.911595 104.720879,124.258293 104.478865,124.361885 C104.294742,124.441571 104.085693,124.457509 103.884685,124.409697 C103.64267,124.369854 103.410305,124.250324 103.225377,124.09892 L103.200452,124.075015 C102.870798,123.804081 102.646473,123.413619 102.43662,123.031125 C102.051488,122.337854 101.673592,121.644584 101.319818,120.951313 C100.194171,118.76791 99.1891288,116.584507 98.2797668,114.353291 C97.1702006,111.643959 96.19732,108.878846 95.3136871,106.002172 C95.0957941,105.31687 94.8232267,104.591725 94.4212099,103.994078 C94.1952765,103.667365 93.9387898,103.380494 93.6244127,103.17331 C93.3759663,102.990032 93.1025949,102.862534 92.7882178,102.798785 C92.0332303,102.647381 91.2444734,102.902377 90.4814456,102.854565 C90.3286793,102.846596 90.1751089,102.830659 90.0231465,102.782847 C89.9990255,102.774879 89.9660601,102.76691 89.9427432,102.758941 C88.9377012,102.440196 88.3748778,101.356463 88.165025,100.320542 C88.069345,99.8264873 88.021103,99.3244639 87.9559763,98.8304091 C87.8844173,98.2486995 87.7951696,97.6749585 87.5869249,97.1330919 C87.3135535,96.4318529 86.8544504,95.8421746 86.2835866,95.3640571 C86.0351402,95.1489042 85.7698091,94.9576572 85.479553,94.790316 C84.8692916,94.4317279 84.1858631,94.1687633 83.5016306,94.0173594 C82.7868447,93.8579869 82.0551742,93.7942379 81.3226997,93.7942379 C81.114455,93.7942379 80.9054063,93.8022065 80.6963576,93.8101751 C79.8513183,93.8420496 78.9998468,93.9376731 78.1636519,94.025328 C77.3917798,94.1050143 76.6279479,94.1926691 75.8560757,94.2723554 C74.7063078,94.3998534 73.5557358,94.5273514 72.4067719,94.6468808 C71.9002307,94.7026612 71.3936896,94.7584415 70.8951888,94.8142219 C69.2549604,94.9975003 67.6219683,95.1728101 65.9905843,95.3481198 C64.3342752,95.5313982 62.6618855,95.7146766 61.0288934,96.0334216 C60.635721,96.1051392 60.2417446,96.1848255 59.8550044,96.280449 C59.7110824,96.3123235 59.5743967,96.3521666 59.437711,96.3840411 C58.7301615,96.5673195 58.0306524,96.7824724 57.3472238,97.045437 C54.6054695,98.089327 52.0478389,99.9539853 50.8096272,102.599569 C50.0055937,104.312823 49.7169456,106.392635 48.2455643,107.595897 C47.4889687,108.209481 46.5249325,108.50432 45.624415,108.878846 C43.6786538,108.878846 41.66857,110.655849 39.9398979,112.719723 C38.3639922,114.600319 37.0292965,116.727942 36.1850613,117.963079 C34.71368,120.106639 34.1428162,122.935501 33.3066213,125.3739 C33.298581,125.397806 33.2897366,125.413744 33.2816963,125.437649 C33.1852122,125.732489 33.0806879,126.027328 32.9842039,126.322167 C32.0925307,128.91197 31.2072898,131.501773 30.3236569,134.083608 C30.3156166,134.115483 30.2995359,134.147357 30.2914956,134.179232 C30.1950115,134.458133 30.0985275,134.737035 29.9618418,135 C29.6080671,134.737035 29.2615286,134.474071 28.9165982,134.195169 L28,133.470024 C28.9640362,131.900205 29.8002311,130.290542 30.5166249,128.633068 C30.6685873,128.290417 30.8141174,127.947766 30.9508031,127.597147 C31.9791619,125.063124 32.7510341,122.441446 33.3629036,119.732114 C33.467428,119.269933 33.5960734,118.815722 33.7488397,118.369479 C33.7970818,118.194169 33.8525601,118.026828 33.9176868,117.851518 C35.3167051,114.026578 38.3237905,108.647756 40.2615113,105.165466 C43.011306,100.224919 47.3048451,95.0054689 52.5230227,90.9813131 C57.926128,86.8216906 64.3093502,83.9450168 70.9836325,84.0007972 C72.4952156,84.0087658 73.9987583,84.1840756 75.4934566,84.3992285 C75.9123581,84.4629775 76.3224152,84.5267265 76.7397086,84.5904755 L76.7485529,84.5904755 C77.8902805,84.7657852 79.0400485,84.9490636 80.1978568,85.0765616 C80.4069055,85.1004675 80.6159542,85.1243734 80.8241989,85.1403106 C81.138576,85.1721851 81.4521491,85.2040596 81.7737625,85.2199969 C84.7398422,85.3953067 87.7155703,85.0606244 90.682454,85.2120283 C95.0885578,85.4271812 99.4303388,86.7579416 103.225377,88.9811881 C105.565115,90.3438231 107.694999,92.0491089 109.52096,94.0412653 C112.053665,96.8143469 113.967265,100.137264 115.149194,103.699239 C116.218559,106.918564 117.31124,111.588178 116.918068,114.974844" id="Fill-136" fill="#834613"></path>
            <g id="Group-140" transform="translate(81.000000, 83.000000)">
                <mask id="mask-16" fill="white">
                    <use xlink:href="#path-15"></use>
                </mask>
                <g id="Clip-139"></g>
                <polygon id="Fill-138" fill="#F0D8C6" mask="url(#mask-16)" points="-1.16615385 10.9346154 11.0030769 10.9346154 11.0030769 -1.23538462 -1.16615385 -1.23538462"></polygon>
            </g>
            <g id="Group-143" transform="translate(76.000000, 78.000000)">
                <mask id="mask-18" fill="white">
                    <use xlink:href="#path-17"></use>
                </mask>
                <g id="Clip-142"></g>
                <polygon id="Fill-141" fill="#F0EED9" mask="url(#mask-18)" points="-1.1592 9.1328 9.1912 9.1328 9.1912 -1.2184 -1.1592 -1.2184"></polygon>
            </g>
            <g id="Group-146" transform="translate(79.000000, 80.000000)">
                <mask id="mask-20" fill="white">
                    <use xlink:href="#path-19"></use>
                </mask>
                <g id="Clip-145"></g>
                <polygon id="Fill-144" fill="#393934" mask="url(#mask-20)" points="-1.11975 4.1685 3.92325 4.1685 3.92325 -0.87525 -1.11975 -0.87525"></polygon>
            </g>
            <g id="Group-149" transform="translate(87.000000, 89.000000)">
                <mask id="mask-22" fill="white">
                    <use xlink:href="#path-21"></use>
                </mask>
                <g id="Clip-148"></g>
                <polygon id="Fill-147" fill="#F0EED9" mask="url(#mask-22)" points="-0.933 7.191 7.24575 7.191 7.24575 -0.98775 -0.933 -0.98775"></polygon>
            </g>
            <g id="Group-190" transform="translate(32.000000, 27.000000)">
                <path d="M47.263526,39.00304 C47.263526,39.00304 48.3934164,39.46544 49.5111836,39.48944 C50.641074,39.51424 50.7267452,39.23424 50.7267452,39.23424 L54.6934849,39.87904 C54.6934849,39.87904 55.5776767,39.99984 55.3441014,39.69584 C55.1113342,39.39184 56.5847178,39.57504 56.2291014,39.29504 C55.8848,39.02784 55.6754712,37.83664 54.0056904,37.75184 C52.3480329,37.65344 51.3894849,37.83664 50.9603205,37.07104 L47.263526,39.00304 Z" id="Fill-150" fill="#CA625F"></path>
                <path d="M35.4867219,34.87024 L35.8924479,35.56304 L35.9902425,36.34144 L35.7809137,37.08304 L35.3145712,37.69024 L34.6275849,38.09184 C30.3286671,39.52544 24.7778178,37.82384 20.2340096,35.51504 C15.7888041,33.25344 12.141311,29.20624 7.81895479,28.33024 C5.82911918,27.92944 3.58146164,27.60144 1.85025616,28.54944 C1.56737945,28.69504 1.86237945,28.50064 1.67810548,28.65904 C1.67810548,28.65904 1.49383151,28.78064 1.6538589,29.07264 C2.41520137,30.43344 4.26925616,31.12624 6.03763973,31.81984 C8.46957123,32.75504 11.0364753,33.35104 13.6146945,33.76384 L13.8240233,34.01984 L13.5532699,34.23824 C9.5259137,33.88624 5.3749,33.27824 2.01028356,31.22384 C0.610447945,30.36064 -0.740894521,28.62224 0.78259863,27.38304 C2.16950274,26.25264 4.19570822,26.22784 6.11118767,26.21584 C7.94180411,26.20384 9.78373562,26.51984 11.4656397,27.23664 C13.9096945,28.27024 16.0094479,29.91104 18.3557082,31.18704 C22.7645438,33.61904 27.8361192,35.57584 32.7848452,34.45664 C33.0547904,34.38464 33.3255438,34.29904 33.3255438,34.29904 L34.1111329,34.20224 L34.8611603,34.40864 C35.0688726,34.55424 35.2782014,34.71264 35.4867219,34.87024" id="Fill-152" fill="#D79688"></path>
                <path d="M35.4133356,36.81552 C35.4133356,36.81552 29.0146644,39.17312 21.9653767,34.82192 C14.9290205,30.48192 7.15556849,24.68432 1.66614384,28.57392 L1.72756849,28.60992 C1.78818493,28.54912 1.61765068,28.67072 1.85041781,28.54912 C3.58162329,27.60112 5.82928082,27.92992 7.81830822,28.33072 C12.1414726,29.20592 15.7889658,33.25392 20.2341712,35.51472 C24.7779795,37.82432 30.3288288,39.52592 34.6269384,38.09232 L35.3147329,37.69072 L35.7447055,37.13152 L35.4133356,36.81552 Z" id="Fill-154" fill="#CA625F"></path>
                <path d="M20.0011616,11.09368 C20.0011616,11.09368 19.8532575,9.39208 21.5852712,8.89368 C23.3043534,8.40808 25.2327644,6.11048 26.4604493,5.70968 C27.7002575,5.30808 27.7261205,4.11608 27.8724082,3.01048 C28.0203123,1.91608 28.081737,0.47048 28.7816548,0.38488 C28.7816548,0.38488 30.6486411,3.84888 31.1521616,4.43288 C31.1521616,4.43288 35.3031753,4.89448 36.2972849,4.78488 C37.2922027,4.66408 40.2147233,1.39368 43.5300384,1.56408 C46.8340384,1.73448 47.2761342,6.34168 45.2862986,8.22488 C45.2862986,8.22488 54.6196137,10.49848 57.935737,19.71208 C61.2510521,28.93848 54.6810384,41.10648 40.9025178,39.63608 C40.9025178,39.63608 33.2519151,39.29528 30.7836137,35.72088 C28.3274356,32.16008 31.0163808,26.33768 30.2800932,24.69608 C30.2800932,24.69608 29.0144219,22.48328 27.9338329,20.22248 C26.8411205,17.96168 18.6999288,15.32408 20.0011616,11.09368" id="Fill-156" fill="#727172"></path>
                <path d="M48.6021795,21.81552 C48.6021795,21.81552 48.3815356,23.99152 47.2758918,25.51072 C46.1831795,27.03072 45.8889877,28.87792 43.297837,29.95952 C40.6937548,31.05392 39.3060425,32.86512 36.5306178,32.64592 C33.7430699,32.42752 31.7661658,30.68912 31.5810836,28.65952 C31.4097411,26.62912 31.483289,25.43712 31.446111,23.88192 C31.4097411,22.32592 33.4480699,25.62032 33.595974,26.30032 C33.7430699,26.99392 33.2023712,27.10272 34.2587137,27.21232 C35.3150562,27.32192 36.3463438,26.55632 37.4762342,26.09472 C38.6061247,25.62032 39.8216863,25.32832 40.8408507,24.81792 C41.8600151,24.31952 42.7813849,24.02752 43.7270014,23.48032 L48.6021795,21.81552 Z" id="Fill-158" fill="#5B5A5B"></path>
                <path d="M21.8062384,8.82096 C22.8132795,9.01536 24.0902658,9.41616 24.7530055,10.27936 C25.9451288,11.81056 26.3993479,13.23376 28.7448,14.42496 C30.6481562,15.38496 30.673211,19.68816 27.6884575,19.84576 C25.9572521,17.65776 18.7729918,15.08096 20.0014849,11.09376 C20.0014849,11.09376 19.8535808,9.39216 21.5855945,8.89376 C21.6583342,8.86976 21.7326904,8.84496 21.8062384,8.82096" id="Fill-160" fill="#959593"></path>
                <path d="M38.3116096,27.63816 C38.3116096,27.63816 38.9864726,26.83576 41.2341301,26.19096 C43.493911,25.55896 46.207911,25.18296 47.8170753,23.56536 C48.369089,23.00616 48.664089,22.42296 48.8111849,21.90056 C48.9089795,21.52296 48.7497603,21.12216 48.4183904,20.92776 C48.074089,20.72136 47.6449247,20.75736 47.3499247,21.02456 C47.104226,21.25576 46.8342808,21.52296 46.6249521,21.82696 C45.8272397,22.92136 43.198911,22.08296 41.1484589,23.18856 C39.0971986,24.28296 36.7275,26.48296 36.7275,26.48296 L38.3116096,27.63816 Z" id="Fill-162" fill="#959593"></path>
                <path d="M32.2199808,25.6444 C32.2199808,25.6444 31.7293918,25.2668 31.2622411,24.0276 C30.7950904,22.7756 29.9117068,20.5516 30.6116247,20.0892 C31.3236658,19.6148 32.2199808,20.5148 32.6620767,22.2044 C33.1049808,23.882 33.3377479,24.514 33.5470767,25.2668 L32.2199808,25.6444 Z" id="Fill-164" fill="#C9C8C7"></path>
                <path d="M32.2199808,25.6444 C32.2199808,25.6444 31.7293918,25.2668 31.2622411,24.0276 C30.7950904,22.7756 29.9117068,20.5516 30.6116247,20.0892 C31.3236658,19.6148 32.2199808,20.5148 32.6620767,22.2044 C33.1049808,23.882 33.3377479,24.514 33.5470767,25.2668" id="Fill-166" fill="#959593"></path>
                <path d="M52.8887315,12.38272 C54.6813616,14.83792 56.4990466,18.49712 56.4748,23.21312 C56.4125671,32.42752 45.6672932,39.33232 42.0076767,38.03152 C38.3480603,36.73072 38.8637041,35.49072 36.1254575,35.70912 C34.5041699,35.84272 32.4407863,36.25632 30.7831288,35.72112 C33.2514301,39.29552 40.9028411,39.63552 40.9028411,39.63552 C54.6813616,41.10592 61.2513753,28.93792 57.9352521,19.71232 C56.7689918,16.47872 54.8777589,14.10832 52.8887315,12.38272" id="Fill-168" fill="#5B5A5B"></path>
                <path d="M36.9358589,6.2804 C36.9358589,6.2804 39.7605849,2.8164 42.1052288,2.1964 C44.451489,1.5884 46.9319137,4.0308 45.310626,7.1308 C43.6780233,10.2308 40.2148041,11.094 39.2198863,10.2796 C38.2257767,9.4644 38.9620644,8.5412 38.7535438,7.4236 C38.5442151,6.3172 36.8380644,7.6172 36.9358589,6.2804" id="Fill-170" fill="#D79688"></path>
                <path d="M44.7339616,2.79128 C43.8497699,2.77928 42.7813041,2.96168 41.7007151,3.61768 C38.9010438,5.29608 38.5446192,6.24328 40.4107973,7.87288 C41.3935918,8.72328 41.1600164,9.72008 41.0994,10.47448 C40.2887562,10.65608 39.5888384,10.58328 39.2202904,10.27928 C38.2253726,9.46488 38.9616603,8.54088 38.7539479,7.42328 C38.5446192,6.31688 36.8376603,7.61688 36.936263,6.28008 C36.936263,6.28008 39.760989,2.81608 42.1056329,2.19608 C43.0520575,1.95288 44.0219205,2.20808 44.7339616,2.79128" id="Fill-172" fill="#CA625F"></path>
                <path d="M19.6452219,10.49832 C19.6694685,10.18152 19.9394137,9.95112 20.2594685,9.93912 C20.9585781,9.89032 22.1377699,9.86632 22.6170438,10.19432 C23.3169616,10.69272 22.5305644,12.83192 21.1307288,12.86872 C19.877989,12.89272 19.4851945,11.83592 19.6452219,10.49832" id="Fill-174" fill="#D79688"></path>
                <path d="M37.0834397,38.05536 L37.8569055,40.20656 C37.8569055,40.20656 37.5497822,42.12736 38.1147274,42.51616 C38.6796726,42.91776 39.6867137,42.61376 39.6867137,42.61376 C39.6867137,42.61376 39.8952342,43.14816 40.5709055,43.19696 C41.2457685,43.24576 41.6030014,42.96656 41.6030014,42.96656 C41.6030014,42.96656 42.1671384,43.22176 42.8670562,43.17216 C43.566974,43.12416 43.4077548,42.84416 43.4077548,42.84416 C43.4077548,42.84416 44.3654945,43.42816 44.2677,42.58896 C44.1812205,41.76256 44.1812205,40.85056 43.3091521,40.76656 C42.4500151,40.66896 41.8842616,41.05776 41.369426,40.51056 C40.852974,39.95136 39.403837,37.24016 39.403837,37.24016 C39.403837,37.24016 37.5990836,36.12256 37.0834397,38.05536" id="Fill-176" fill="#D79688"></path>
                <path d="M30.9184247,7.55696 C30.7099041,7.52016 30.4884521,7.53296 30.2799315,7.59296 C29.9243151,7.69056 29.3464384,7.92096 29.1136712,8.34656 C28.7693699,8.99136 29.407863,9.50176 30.746274,9.62336 C32.0846849,9.75696 32.2818904,8.77296 32.0846849,8.32256 C31.8769726,7.82416 31.2869726,7.62976 30.9184247,7.55696" id="Fill-178" fill="#020303"></path>
                <path d="M31.3359507,7.92096 C31.1395534,7.84816 30.9431562,7.95776 30.8817315,8.14016 C30.8081836,8.32256 30.9181014,8.52896 31.1023753,8.58976 C31.2866493,8.65056 31.4951699,8.55376 31.5565945,8.37056 C31.6188274,8.17616 31.5202247,7.98176 31.3359507,7.92096" id="Fill-180" fill="#FEFEFE"></path>
                <path d="M39.9690247,25.75384 C39.9690247,25.75384 39.2691068,27.30904 38.3849151,27.84424 C37.5128466,28.39144 37.4021205,28.58584 36.334463,28.60984 C35.2659973,28.62264 35.6587918,28.14824 35.0202986,28.03864 C34.3818055,27.92984 34.4060521,27.83304 34.9095726,26.88424 C35.4130932,25.93624 35.5480658,25.57064 36.445189,25.43704 C37.3415041,25.31624 37.6607507,25.03704 38.4091616,25.00024 C39.1583808,24.96424 40.018326,24.68424 39.9690247,25.75384" id="Fill-182" fill="#D79688"></path>
                <path d="M35.0202986,28.03896 C34.4925315,27.94216 34.4181753,27.86856 34.6889288,27.30936 C35.1423397,27.07896 35.8923671,26.73816 35.9166137,26.94536 C35.9529836,27.21256 34.9709973,27.84456 34.9709973,27.84456 L35.0324219,28.03896 L35.0202986,28.03896 Z M35.5731205,28.42776 C35.4866411,28.35576 35.4381479,28.25736 35.3516685,28.18536 C35.6216137,27.92936 36.0766411,27.50376 36.3215315,27.50376 C36.5914767,27.50376 35.9416685,28.09976 35.5731205,28.42776 Z M39.8469836,25.17016 C39.9326548,25.29176 39.9819562,25.47416 39.9690247,25.75416 C39.9690247,25.75416 39.2691068,27.30936 38.3849151,27.84456 C37.5257781,28.37976 37.4021205,28.58616 36.3708329,28.61016 C37.0222575,28.39096 37.2429014,28.05176 38.2620658,27.10296 C38.9498603,26.45816 39.5269288,25.65576 39.8469836,25.17016 Z" id="Fill-184" fill="#CA625F"></path>
                <path d="M35.1307822,27.72256 C35.1307822,27.72256 35.5235767,28.75616 34.7250562,28.85296 C33.9144123,28.93856 32.4410288,28.85296 32.1710836,27.84416 C31.9132616,26.84736 32.0846041,26.81136 32.2325082,26.17856 C32.3804123,25.54656 31.667563,25.40176 32.1217822,24.84176 C32.5638781,24.29536 33.5830425,24.41616 33.975837,25.08496 C34.3694397,25.75376 34.4066178,25.82656 34.7008096,26.00896 C34.9958096,26.20416 35.5971247,27.09056 35.1307822,27.72256" id="Fill-186" fill="#D79688"></path>
                <path d="M35.2168575,28.1116 C35.203926,27.8932 35.1311863,27.7228 35.1311863,27.7228 C35.1554329,27.698 35.1675562,27.662 35.192611,27.638 C34.8483096,27.5164 34.4676384,27.4188 34.4797616,27.6012 C34.4797616,27.8204 34.9339808,28.0148 35.2168575,28.1116 Z M33.6085014,24.7084 L33.2884466,24.562 C32.8714055,24.4284 32.3921315,24.514 32.1221863,24.842 C31.6671589,25.4012 32.3800082,25.5468 32.2329123,26.1788 C32.0850082,26.8116 31.9128575,26.8476 32.1706795,27.8444 C32.4406247,28.8532 33.9148164,28.938 34.7254603,28.8532 C35.1796795,28.7932 35.2532274,28.4396 35.2289808,28.1356 C35.0075288,28.0876 34.6640356,28.0268 34.2954877,27.978 C33.6820493,27.8932 34.234063,28.1964 34.5783644,28.4524 C34.9339808,28.7196 33.7677205,28.4524 33.153474,28.3556 C32.5392274,28.258 32.4778027,27.7228 32.6499534,26.9572 C32.8342274,26.2036 32.4163781,25.498 32.6871315,25.0612 C32.9328301,24.6716 33.5220219,24.7204 33.6448712,24.7324 L33.6085014,24.7084 Z" id="Fill-188" fill="#CA625F"></path>
            </g>
        </g>
    </g>
</svg>