<svg xmlns="http://www.w3.org/2000/svg" viewBox="0 0 70.41 80"><defs><style>.cls-1{fill:#443129;}.cls-2{fill:#2d1f1b;}.cls-3{fill:#edd7c8;}.cls-4{fill:#cea78d;}.cls-5{fill:#d8baa7;}.cls-6{fill:#fff;}.cls-7{fill:#9e5d39;}.cls-8{fill:#753f25;}.cls-9{fill:#e27171;}.cls-10{fill:#ed5454;}.cls-11{fill:#eab5a7;}.cls-12{fill:#a88167;}.cls-13{fill:#911777;}</style></defs><title>Fichier 4</title><g id="Calque_2" data-name="Calque 2"><g id="OBJECTS"><path class="cls-1" d="M44.6,73.38c6.95,0,13.9.34,15.26-8,.34-2.71.34-3.22,2.88-4.24,2.37-1.18,5.42-1.52,6.95-4.06,1.53-2.89.34-5.77-1-8.31-1.86-3.73-1-5.43.34-9.5,3-8.47-5.59-8.47-10-13.73-3.9-4.91-2.37-12.2-7.12-17-4.07-4.24-8.65-4.75-14.24-4.75-7.12,0-13.06,1-17.8,6.44-3.22,3.9-4.92,8.31-7.8,12.38-1.7,2.37-3.22,4.75-5.6,6.61-2,1.53-4.23,2.38-5.25,5.09-.85,1.86-1.7,5.76-.85,7.8,1,2.2,4.24,3.22,5.77,4.74C10.35,51.17,7.3,53,5.78,57.61c-1.7,5.09.67,8.31,5.93,8.82,3.73.17,4.24-.17,6.1,2.88,1.7,2.72,3.22,3.56,6.61,4.24a67,67,0,0,0,19.33-.17"/><path class="cls-2" d="M54.08,43.3c-1.21,1.67-2.26,4.11-1.35,6.18A10.86,10.86,0,0,0,54.41,52c1.8,2.17.5,4.07-1.47,5.49-1.35,1-3,2.1-3.23,3.92s0,4.12,1.36,5.35a.27.27,0,0,0,.42-.33c-1.23-2.13-1.58-5.14.26-7,1.31-1.31,3-1.95,4-3.56a3.36,3.36,0,0,0-.4-3.94c-.56-.75-1.21-1.4-1.71-2.19-1.25-2-.35-4.51.77-6.26.13-.21-.19-.38-.33-.19Z"/><path class="cls-2" d="M49.8,43.3c.88,2.2,1.13,4.86-.47,6.83-.88,1.1-1.74,1.77-2.15,3.18-.55,1.95,1.92,2.84,3.39,2.8a.33.33,0,0,0,.09-.64,3.84,3.84,0,0,0-1.06-.27c-1.86-.36-1.56-2.61-.65-3.7a7.32,7.32,0,0,0,1.57-2.06A8,8,0,0,0,50,43.23c0-.09-.2,0-.16.07Z"/><path class="cls-2" d="M45,56a7.49,7.49,0,0,0,1.35,5.62.22.22,0,0,0,.39-.22,10.47,10.47,0,0,1-1.4-5.4c0-.22-.31-.21-.34,0Z"/><path class="cls-2" d="M63.67,45.75c1,2.14,2.65,3.85,3.46,6.08,1.11,3.08-1.8,4.1-3.48,5.9-.25.26.08.75.4.52C65.83,57,67.9,56,68.2,53.57c.4-3.11-3-5.56-4.33-7.94a.12.12,0,0,0-.2.12Z"/><path class="cls-2" d="M13.34,25.55c-3,3.7-7.43,6.2-9.32,10.77A4.44,4.44,0,0,0,5,41.25c.88.94,2.42,1.34,3.56,1.82,2.41,1,3,3.37,3,5.78,0,3.85-5.05,8.66-3.22,12.44.76,1.58,3.31,1.23,4.64,1,2.3-.45,5.38-1.77,5.68,1.8.13,1.45.24,2.35,1.37,3.34a.22.22,0,0,0,.3-.31c-1.25-1.53-.34-5.57-2.92-6.17s-5.39,1.69-7.92.41c-1.85-1,.32-4.92.86-6.07a16,16,0,0,0,2-6.42A6.68,6.68,0,0,0,9.85,43a27.35,27.35,0,0,0-3.62-1.62,3.68,3.68,0,0,1-1.81-4.5c1.18-4.66,6.32-7.53,9.06-11.21.06-.08-.08-.19-.14-.11Z"/><path class="cls-2" d="M12.54,30.71C9.77,33.63,7.64,38.37,12,41a.29.29,0,0,0,.35-.45c-1.6-1.49-2.61-2.87-2.21-5.15a10.38,10.38,0,0,1,2.52-4.56c.08-.09,0-.21-.12-.13Z"/><path class="cls-2" d="M12.39,34.45c-.28,2.57.66,4.72,1.56,7.08a10.81,10.81,0,0,1,.11,7.5c-.94,3.11-1.83,6.88,2.14,8,.28.08.47-.35.2-.48-4.46-2.11-1.55-6.6-1-10.16.68-4.27-2.88-7.76-2.84-12,0-.13-.18-.13-.19,0Z"/><path class="cls-2" d="M18.79,53.1c1.24,1.77,2.81,3.17,3.09,5.44.25,2-.66,4-.31,5.95.39,2.25,1.81,4.14,4.3,3.73a.29.29,0,0,0,0-.55c-4.46-1-3.44-4.82-3.24-8.34.16-2.76-2.06-4.46-3.62-6.4-.1-.13-.32,0-.22.17Z"/><path class="cls-2" d="M26.17,56.65c-.5,2.79.31,7.3,3.87,7.43a.27.27,0,0,0,.07-.53c-3-.81-3.9-4-3.54-6.85,0-.23-.36-.28-.4-.05Z"/><path class="cls-2" d="M31,55.67a8,8,0,0,1-.71,3.77c-.12.24.21.54.39.31a5,5,0,0,0,.71-4.13c0-.23-.39-.17-.39.05Z"/><path class="cls-3" d="M33.72,10.17S18.42,6.73,17.8,31s17,21.73,17,21.73l.79,7.5s2.81,3.75,6.56-.78c0,0,2.19-9.38,5.47-20.48C50,31.05,53.73,13.93,33.72,10.17Z"/><path class="cls-3" d="M46.71,36.78C50.9,43.62,59.61,38,54.1,34.2c-1.29-.82-4.92-1.87-6.45-.7-.58.47-.94,2.34-.94,3.28"/><path class="cls-4" d="M48.33,36a5.22,5.22,0,0,0,3.23,1.3c.39,0,1.41-.16,1.21-.78s-2-.71-2.46-.74a4.56,4.56,0,0,0-2,.22"/><path class="cls-5" d="M41.67,50.27c-2.11,1.75-6.84,2.42-6.84,2.42l.28,2.71C40.68,53.7,41.67,50.27,41.67,50.27Z"/><path class="cls-6" d="M35.2,30.38s3-6.6,9-3.05C44.2,27.33,41.71,31.68,35.2,30.38Z"/><path class="cls-6" d="M19.37,27.21s6.8-2.89,8.42,3.38C27.79,30.59,23.49,32.42,19.37,27.21Z"/><path class="cls-7" d="M41.94,27.52a1.35,1.35,0,0,1-.83,1.72,1.57,1.57,0,0,1-1.78-1.06,1.34,1.34,0,0,1,1-1.64A1.35,1.35,0,0,1,41.94,27.52Z"/><path class="cls-8" d="M40.93,28.4a.57.57,0,0,1-.78-.18.65.65,0,0,1,.26-.83.57.57,0,0,1,.77.24A.58.58,0,0,1,40.93,28.4Z"/><path class="cls-6" d="M40.72,27a.33.33,0,0,1,.46.13.35.35,0,1,1-.61.34A.35.35,0,0,1,40.72,27Z"/><path class="cls-7" d="M26.08,28.22a1.35,1.35,0,0,1-.84,1.72,1.56,1.56,0,0,1-1.78-1.06,1.35,1.35,0,1,1,2.62-.66Z"/><path class="cls-8" d="M25.07,29.1a.56.56,0,0,1-.78-.18.65.65,0,0,1,.26-.83.57.57,0,0,1,.52,1Z"/><path class="cls-6" d="M24.85,27.72a.34.34,0,0,1,.47.13.37.37,0,0,1-.14.48.35.35,0,0,1-.47-.14A.34.34,0,0,1,24.85,27.72Z"/><path class="cls-9" d="M26.17,42.53s1.42,3.11,4.41,3c3.14-.09,4.51-3.49,4.51-3.49l-4.54,1.33Z"/><path class="cls-10" d="M26.17,42.53a6.61,6.61,0,0,0,8.92-.47s-3.78-.29-4.8,1.23C30.29,43.29,28.35,41.42,26.17,42.53Z"/><path class="cls-11" d="M37.59,37.68a3.48,3.48,0,0,1,3.77-2.8,3.11,3.11,0,0,1,2.54,3.59,3,3,0,0,1-3.56,2.4C38.65,40.58,37.3,39.37,37.59,37.68Z"/><path class="cls-11" d="M22.45,38.94a3.11,3.11,0,0,0-2.54-3.59,3.06,3.06,0,0,0-2,.38,28.29,28.29,0,0,0,1,5.61A3,3,0,0,0,22.45,38.94Z"/><path class="cls-12" d="M30.32,26.26c-.69,3.79-2.79,7.23-3.14,11.08-.16,1.88,1,2.56,2.77,2.21.23,0,.25-.44,0-.48-3.19-.49-1.76-3.77-1.1-5.85a39.54,39.54,0,0,0,1.83-6.91c0-.2-.32-.25-.36,0Z"/><path class="cls-12" d="M29.72,46.83a2.86,2.86,0,0,0,2.5.2c.1,0,0-.18-.06-.16a4.62,4.62,0,0,1-2.42-.1s-.06,0,0,.06Z"/><path class="cls-2" d="M37.31,24.71a23.25,23.25,0,0,1,6.46.36.13.13,0,0,0,.11-.23,10.15,10.15,0,0,0-6.57-1.44.66.66,0,1,0,0,1.31Z"/><path class="cls-2" d="M25.61,22.9A7,7,0,0,0,20.26,24c-.1.08,0,.27.09.24a15.48,15.48,0,0,1,5.26-.07c.76.09.74-1.21,0-1.3Z"/><path class="cls-6" d="M49.63,43.56a1.31,1.31,0,0,0,1.31-1.3,1.46,1.46,0,0,0-1.44-1.34,1.23,1.23,0,0,0-1.17,1.34,1.31,1.31,0,0,0,1.3,1.3Z"/><path class="cls-6" d="M49.62,40.36a.7.7,0,0,0,0-1.4.7.7,0,0,0,0,1.4Z"/><path class="cls-1" d="M34.78,4.81c-.84-1.45-3.06-2.06-4.59-2.45,2.07-.53,3.44.08,5.28.84C36.92,1.52,39.34-.21,41.64,0a7.5,7.5,0,0,0-2,2,19.55,19.55,0,0,0-1.88,3.15c-.46.91.36,1.13-1,.9a4,4,0,0,1-2.14-.61"/><path class="cls-1" d="M11.71,30.15c2.2-3.56,4.75-5.42,8.14-7.29A26.66,26.66,0,0,0,29,13.54c.17,2.37-1.35,4.23-2.71,5.93,3.56-.34,7.12-5.09,9.15-7.63a25.22,25.22,0,0,0,3.9,9,11.1,11.1,0,0,1,1.36-2.89c1.53,3.56,1.65,8.48,4.2,11.53a14,14,0,0,0,4.23,3.58c2.38-7.12,3.1-14.77-2.16-20.53-2.88-3.22-7.46-8.14-12.2-7.63-2.38.34-4.24,2.2-6.45,2.71-1.35.51-2.71.17-4.06.51-5.43,1.7-10.85,12.55-10.69,17.8"/><path class="cls-2" d="M44.53,7.05c3.57,1.87,5.43,5.42,6.4,9.19.78,3,.56,6.17,1.51,9.15.79,2.48,2.81,3.83,5.11,4.77,1.88.77,3.6,1.32,5,2.82,1.8,1.87,1.71,4.78,1.35,7.15,0,.23.28.33.34.1.89-3,.52-5.88-1.71-8.19a11.1,11.1,0,0,0-4.23-2.26c-2.65-1-4.58-2.34-5.47-5.14-1.08-3.38-.74-7-1.88-10.43a12.63,12.63,0,0,0-6.3-7.44c-.19-.08-.35.19-.16.28Z"/><path class="cls-2" d="M38,8.49a14.42,14.42,0,0,0,.5,7.19c.07.26.42.14.38-.1-.32-2.36-1.07-4.62-.64-7,0-.15-.2-.22-.24-.06Z"/><path class="cls-2" d="M42.8,9.55a35.66,35.66,0,0,0,1.34,11.58c.8,2.9,2.36,7.25,5.58,8.23.22.07.33-.24.15-.36-5.67-3.94-7-13-6.89-19.45a.09.09,0,0,0-.18,0Z"/><path class="cls-2" d="M46.71,12c.2,5.36.41,11.2,3.42,15.84A11,11,0,0,0,55.85,32c1.87.69,3.63,1.23,4.83,2.95,1.78,2.55-.16,5.46-1.6,7.55-1.33,1.92-2.36,4.23-.62,6.22,1,1.19,2.53,1.23,3.45,2.72a3.69,3.69,0,0,1-.72,4.93c-2.67,2-6.91,2.34-5.66,6.78.06.23.45.19.42,0-.64-5.33,5.15-4.05,6.95-7.77.84-1.72,0-4-1.18-5.33-1.34-1.59-3.87-1-3.42-4.28.25-1.83,2-3.48,2.86-5a5.94,5.94,0,0,0-.66-7.18c-2-2.2-5.63-2.27-8-4.12C47.7,25.53,47.5,17.6,46.87,12c0-.1-.17-.11-.16,0Z"/><path class="cls-2" d="M30.23,15A5.33,5.33,0,0,0,32.54,12c.44-1.09,1-3.08.37-4.19a.27.27,0,0,0-.49.06c-.26,1-.12,2.17-.39,3.24a7.31,7.31,0,0,1-2,3.62c-.12.11,0,.3.18.22Z"/><path class="cls-2" d="M15.28,23c7.65-2.4,9.27-11.82,15.53-15.82a.17.17,0,0,0-.13-.31c-3.08,1-4.82,4.48-6.59,7-2.38,3.37-5,7.19-8.92,8.91-.14.07,0,.29.11.25Z"/><path class="cls-2" d="M19.2,15.88c1.4-4.53,5.16-7.34,9.33-9.14.21-.09.06-.41-.15-.36a13.55,13.55,0,0,0-9.3,9.46c0,.08.1.12.12,0Z"/><path class="cls-2" d="M39.67,5.65a14.74,14.74,0,0,0,1,5.77.13.13,0,0,0,.26-.07,40.81,40.81,0,0,1-1-5.7.12.12,0,0,0-.24,0Z"/><path class="cls-2" d="M35.42,6.11a32.52,32.52,0,0,0,0,3.56.12.12,0,0,0,.23,0,32.52,32.52,0,0,0,0-3.56.13.13,0,0,0-.25,0Z"/><path class="cls-13" d="M22.43,78.94,57,80A220.07,220.07,0,0,0,42.36,58.54a5.64,5.64,0,0,1-6.89.25S27.17,68.88,22.43,78.94Z"/><path class="cls-6" d="M35.09,61.55a.69.69,0,0,0,0-1.37.69.69,0,0,0,0,1.37Z"/><path class="cls-6" d="M37.7,63.47a.77.77,0,0,0,0-1.54.77.77,0,0,0,0,1.54Z"/><path class="cls-6" d="M44.46,79.2a.77.77,0,0,0,0-1.54.77.77,0,0,0,0,1.54Z"/><path class="cls-6" d="M36,78.82a.77.77,0,0,0,0-1.54.77.77,0,0,0,0,1.54Z"/><path class="cls-6" d="M40.62,61.21a.5.5,0,0,0,0-1,.5.5,0,0,0,0,1Z"/><path class="cls-6" d="M47.1,75.41a.5.5,0,0,0,0-1,.5.5,0,0,0,0,1Z"/><path class="cls-6" d="M24.34,78.32a.5.5,0,0,0,0-1,.5.5,0,0,0,0,1Z"/><path class="cls-6" d="M32.87,66.25a.8.8,0,0,0,1.23-.37.64.64,0,0,0-.15-.63.53.53,0,0,0-.26-.15.45.45,0,0,0-.28,0l.08,0,.32.09c.21.21.23.21.06,0a.47.47,0,0,1-.1-.1.74.74,0,1,0-.9,1.17Z"/><path class="cls-6" d="M26.72,74A.8.8,0,0,0,28,73.67a.66.66,0,0,0-.15-.63.68.68,0,0,0-.26-.15.45.45,0,0,0-.28,0c-.06,0,0,0,.08,0l.32.08c.21.21.23.21.06,0l-.1-.1a.76.76,0,0,0-1.06,0A.75.75,0,0,0,26.72,74Z"/><path class="cls-6" d="M30.17,69.67a.7.7,0,0,0,0-1.4.7.7,0,0,0,0,1.4Z"/><path class="cls-6" d="M36,70.42a.69.69,0,0,0,0-1.37.69.69,0,0,0,0,1.37Z"/><path class="cls-6" d="M38.47,67.41a.58.58,0,0,0,0-1.16.58.58,0,0,0,0,1.16Z"/><path class="cls-6" d="M33.66,75.49a.58.58,0,0,0,0-1.16.58.58,0,0,0,0,1.16Z"/><path class="cls-6" d="M32.27,72.24a.59.59,0,0,0,0-1.17.59.59,0,0,0,0,1.17Z"/><path class="cls-6" d="M41,77.3a.58.58,0,0,0,0-1.16.58.58,0,0,0,0,1.16Z"/><path class="cls-6" d="M41.94,64.68a.61.61,0,0,0,0-1.21.61.61,0,0,0,0,1.21Z"/><path class="cls-6" d="M44.15,70.33a.75.75,0,0,0,0-1.49.75.75,0,0,0,0,1.49Z"/><path class="cls-6" d="M43.25,74.17a.75.75,0,0,0,0-1.49.75.75,0,0,0,0,1.49Z"/><path class="cls-6" d="M37.9,74.91a.75.75,0,0,0,0-1.49.75.75,0,0,0,0,1.49Z"/><path class="cls-6" d="M28.92,78.05a.75.75,0,0,0,0-1.49.75.75,0,0,0,0,1.49Z"/><path class="cls-6" d="M48.46,70.66a.93.93,0,1,0-.93-.92.93.93,0,0,0,.93.92Z"/><path class="cls-6" d="M52.64,77.82a.92.92,0,1,0-.93-.92.93.93,0,0,0,.93.92Z"/><path class="cls-6" d="M45.54,65.5a.66.66,0,0,0,0-1.31.66.66,0,0,0,0,1.31Z"/><path class="cls-6" d="M43.88,62.52a.6.6,0,0,0,0-1.2.6.6,0,0,0,0,1.2Z"/><path class="cls-6" d="M50.71,74.17a.6.6,0,0,0,0-1.2.6.6,0,0,0,0,1.2Z"/><path class="cls-6" d="M41.09,70.32a1,1,0,0,0,.48-.25.47.47,0,0,0,0-.67,1,1,0,0,0-.48-.25.61.61,0,1,0,0,1.17Z"/><path class="cls-6" d="M48.4,79a1.16,1.16,0,0,0,.49-.26.48.48,0,0,0,0-.67,1,1,0,0,0-.49-.25.61.61,0,1,0,0,1.18Z"/></g></g></svg>