<?xml version="1.0" encoding="UTF-8"?>
<svg width="101px" height="64px" viewBox="0 0 101 64" version="1.1" xmlns="http://www.w3.org/2000/svg" xmlns:xlink="http://www.w3.org/1999/xlink">
    <!-- Generator: Sketch 51.2 (57519) - http://www.bohemiancoding.com/sketch -->
    <title>Group 45 Copy</title>
    <desc>Created with Sketch.</desc>
    <defs>
        <polygon id="path-1" points="0.175427368 0.518666667 63.6688168 0.518666667 63.6688168 63.3333333 0.175427368 63.3333333"></polygon>
        <polygon id="path-3" points="0 0.0540996563 33.4530667 0.0540996563 33.4530667 10.9965706 0 10.9965706"></polygon>
    </defs>
    <g id="Page-1" stroke="none" stroke-width="1" fill="none" fill-rule="evenodd">
        <g id="Desktop-Large" transform="translate(-778.000000, -560.000000)">
            <g id="Group-45-Copy" transform="translate(778.000000, 560.000000)">
                <g id="Group-3" transform="translate(29.000000, 0.000000)">
                    <mask id="mask-2" fill="white">
                        <use xlink:href="#path-1"></use>
                    </mask>
                    <g id="Clip-2"></g>
                    <path d="M9.46721684,9.71366667 C21.8569432,-2.547 41.9873011,-2.547 54.3770274,9.71366667 C66.76608,21.9743333 66.76608,41.8776667 54.3770274,54.1383333 C41.9873011,66.3983333 21.8569432,66.3983333 9.46721684,54.1383333 C-2.92183579,41.8776667 -2.92183579,21.9743333 9.46721684,9.71366667" id="Fill-1" fill="#A199B0" mask="url(#mask-2)"></path>
                </g>
                <g id="Group-6" transform="translate(0.000000, 46.000000)">
                    <mask id="mask-4" fill="white">
                        <use xlink:href="#path-3"></use>
                    </mask>
                    <g id="Clip-5"></g>
                    <path d="M31.4470667,0.120158824 C32.3804,0.539452941 32.3804,0.556923529 33.0897333,1.27839412 L33.4530667,2.25157059 L33.4010667,3.29204118 C32.9690667,4.18174706 32.9690667,4.19921765 32.2077333,4.87021765 L31.2224,5.23904118 C24.8757333,6.19604118 17.3017333,5.67580588 10.5750667,5.05462941 C7.66973333,4.80292353 4.50506667,4.36615882 2.25706667,5.91068824 C-0.2156,7.58915882 1.8424,6.21286471 1.8424,6.21286471 C1.99773333,6.63215882 1.61706667,6.12874706 2.1704,6.64898235 C4.24573333,8.64645294 7.58373333,9.40221765 10.4364,10.1903353 L10.7997333,10.6943941 C10.7997333,10.6943941 10.4537333,10.8949824 10.2810667,10.9965706 C7.1164,10.4756882 3.77906667,9.95545294 1.18506667,8.19351176 C-0.0949333333,7.33680588 -0.716933333,5.40727647 1.3064,3.93068824 C5.66373333,0.741335294 12.7537333,2.15127647 18.0970667,1.79862941 C22.2124,1.5301 26.3284,0.909570588 30.3750667,0.0696882353 C30.7210667,0.0198647059 31.0837333,0.103982353 31.4470667,0.120158824" id="Fill-4" fill="#D89688" mask="url(#mask-4)"></path>
                </g>
                <path d="M30.2275811,49 C30.2275811,49 24.7175232,51.8122137 17.7516465,50.7625954 C11.1010167,49.7526718 0.186434281,50.2083969 2.25718778,53 L2.66037925,52.6832061 C4.94219942,50.8610687 8.15284825,51.3763359 11.1010167,51.6732824 C17.90927,52.4061069 25.5949382,53.0198473 32,51.8908397 L30.2275811,49 Z" id="Fill-7" fill="#CA625F"></path>
                <path d="M79.0115137,38.451634 C79.1766733,38.5575456 79.3241119,38.6627784 79.4531207,38.8039939 C79.8018696,39.12105 80.5007852,39.7897871 80.9239623,40.1951029 C81.4938691,40.7586073 82.1920759,40.3356395 82.173646,39.8074391 C82.1559251,39.2615866 83.4247475,39.8074391 83.4247475,39.8074391 C83.4247475,39.8074391 83.2957387,41.9385718 83.8472157,42.2026721 C84.3986927,42.4667723 84.6744312,41.3927194 84.6744312,41.3927194 C84.6744312,41.3927194 84.7850102,42.8720881 85.5200766,42.9949728 C86.237422,43.1361883 85.9432537,40.2657107 85.9248238,38.9974864 C85.9248238,37.7469141 85.3364872,36.5146726 84.269684,36.6022534 C83.1851598,36.6905131 82.2657952,36.4793687 81.3464305,35.8099527 C80.4086361,35.1235636 80.0960379,35 80.0960379,35 L78.4231771,36.1976165 L78,37.7998699 C78,37.7998699 78.6436261,38.2228376 79.0115137,38.451634" id="Fill-9" fill="#CA625F"></path>
                <path d="M61.122436,53 L66.0065196,53 C66.0065196,53 67.3301401,52.9818857 67.8853848,52.602183 C68.457873,52.204366 71.3382477,52.8014399 71.8928026,52.3137483 C72.4473575,51.8246633 70.7836928,50.4333488 68.4399397,50.5427311 C66.0782531,50.6507199 56.6494403,50 56.6494403,50 L54.627798,50 L53,50.9572689 L61.122436,53 Z" id="Fill-11" fill="#CA625F"></path>
                <path d="M100.157405,23.7538378 C100.157405,23.7538378 101.747002,22.9094809 100.559519,21.4100997 C99.3888754,19.893446 97.8511426,19.0152085 96.1914959,18.2738219 C94.5318492,17.5330997 90.7754166,12.0530837 81.9174564,9.67546501 C81.9174564,9.67546501 80.8694003,5.16071313 77.9515473,4.19611341 C75.0336944,3.23084936 73.1995962,6.1425853 73.1995962,6.1425853 C73.1995962,6.1425853 70.8583088,6.43555257 69.6176151,8.50359592 C68.3769214,10.5543668 70.0197292,11.6226012 70.0197292,11.6226012 C70.0197292,11.6226012 69.3906261,12.5705928 64.865664,12.0185389 C60.3407019,11.4671492 55.9376537,10.2095822 49.7880699,12.7944703 C43.655325,15.3959665 37.9772317,22.0133066 36.3000725,30.0091209 C34.6229132,38.0042708 33.5741836,45.3796056 27.1800982,45.6553004 C27.1800982,45.6553004 26.026967,50.4284747 29.5564105,50.3593849 C33.102693,50.273687 34.6579382,50.2902951 36.7021865,51.1353163 C38.7632738,51.9790089 38.9734239,52.3756109 41.4541377,51.531254 C43.952364,50.6702889 44.9310437,49.9634472 48.1977996,50.3593849 C51.4827416,50.7387144 55.1866366,51.5139815 58.1213285,49.1875158 C61.0566939,46.8444419 62.0353736,43.8802243 65.2671045,44.4834313 C68.4819965,45.0866383 71.3998494,50.4284747 71.6093259,51.1353163 C71.8188024,51.8414937 72.273454,50.7732593 72.7974821,49.1875158 C73.3215102,47.5851642 75.2606834,49.5495728 74.6666053,48.0156467 C74.0556883,46.4657768 73.6185492,46.5508103 73.1995962,44.8800333 C72.7624571,43.2085919 73.1470587,40.5718864 75.9773491,38.6247502 C78.8076394,36.6603416 80.7818377,33.5067914 82.3195705,30.8016605 C83.8391171,28.0965296 88.1027388,28.1822275 91.4395447,28.0613203 C94.7763507,27.9238051 99.3888754,26.8728431 100.157405,23.7538378" id="Fill-13" fill="#717171"></path>
                <path d="M81.5167785,9.80653339 C81.7667428,9.92879167 81.9672283,10.0678437 82,9.96305086 C81.8502785,9.9113262 81.6832072,9.85892979 81.5167785,9.80653339 Z M73.2833786,6.16498312 C73.2833786,6.16498312 75.5330573,5.62489708 76.6999857,7.36741348 C77.8495645,9.09246441 77.8334999,8.93527519 77.8334999,8.93527519 C77.8334999,8.93527519 80.2335428,9.94625714 80.8497787,9.73667151 C80.9834357,9.68427511 81.1164501,9.70174057 81.2334,9.71920604 C81.1672141,9.45789576 80.1500071,5.1365357 77.4498786,4.19608737 C75.0498358,3.35976011 73.3996858,5.43277692 73,6.02525937 L73.2833786,6.16498312 Z" id="Fill-15" fill="#D89688"></path>
                <path d="M100.303654,22 C99.2073143,22.2549532 97.1502868,22.8287513 97.0153755,23.6734757 C96.8426593,24.8204577 98.1695347,24.995546 98.7655167,25.4741207 C98.9767789,25.649209 98.996052,25.8249117 98.996052,26 C99.5156831,25.5380126 99.8996615,25.011519 100.072378,24.3904162 C100.072378,24.3904162 101.822519,23.6095838 100.514917,22.2230072 C100.437824,22.1431424 100.380747,22.0798648 100.303654,22" id="Fill-17" fill="#D89688"></path>
                <path d="M97.3598251,23 C97.3406506,23.352143 97.5132207,23.7372389 98.1821142,23.988585 C99.0811011,24.3239285 99.6747717,24.340728 100,24.4919233 C99.8082555,25.0611673 99.4446783,25.5645057 98.9859663,26 C98.9859663,25.8158518 98.9667919,25.6310575 98.7566104,25.4469093 C98.1629397,24.9442171 96.8428523,24.7600689 97.0154224,23.5530907 C97.0537713,23.352143 97.1879925,23.1673487 97.3598251,23" id="Fill-19" fill="#CA625F"></path>
                <path d="M27,49.168112 C29.9675037,49.2524794 34.6105367,49.3030998 37.2806171,48.7644464 C41.4526178,47.9564661 55.3285574,45.1788313 60.3201543,41.7113306 C63.8636632,39.253643 66.6737075,43.7309567 68,46.5423385 C67.0579353,45.6162439 65.9927294,44.8588841 64.8932053,44.6570513 C61.6646151,44.0677774 60.6868866,46.9635266 57.7543739,49.2524794 C54.8225341,51.5252077 51.1222386,50.7678479 47.8404891,50.3972803 C44.5769079,50.0104882 43.5991794,50.700354 41.102708,51.5420812 C38.6244051,52.3669349 38.4151321,51.9794938 36.355375,51.1552891 C34.3137863,50.3297864 32.7600525,50.3135619 29.2165436,50.3972803 C28.0120466,50.4141538 27.3492368,49.8755003 27,49.168112" id="Fill-21" fill="#5A5A5A"></path>
                <path d="M98,26 C96.1845324,26.6340234 91.1844047,28.1261931 86.8180401,27.4062229 C81.3722976,26.4971695 80.5675503,26.0343787 77.8106803,29.720838 C75.3449453,33.0311144 72.4679243,38.6388166 73.0845231,42 C73.4614802,40.8681459 74.249063,39.6675344 75.6875735,38.6725342 C78.461608,36.7175737 80.3965663,33.5798521 81.9037345,30.8877319 C83.3937382,28.1949506 87.5719543,28.2808975 90.8424366,28.1605719 C93.2051851,28.0580968 96.2188613,27.4921697 98,26" id="Fill-23" fill="#5A5A5A"></path>
                <path d="M71.5641107,50.9774626 C71.5641107,50.9774626 71.5808376,51.9326207 71.1800356,52.887133 C70.7966038,53.8422911 71.01341,54.5287908 71.9481858,54.2943605 C72.8655913,54.0767214 73.0823975,53.2726836 73.0823975,53.2726836 C73.0823975,53.2726836 72.4647893,54.008911 74.5846007,54.2943605 C76.7204957,54.5959554 76.3866012,55.0480248 77.2377425,54.7800122 C78.1056107,54.5287908 79.4238181,55.3825562 79.8908843,54.7800122 C80.3753208,54.1936136 79.1568313,53.3224113 78.0052494,53.2726836 C76.8543108,53.2048732 75.4518255,52.3175255 74.9686758,50.6087031 C74.5009663,48.8837353 74.9519489,49.3693871 74.2172525,48.3302732 C73.4831994,47.2756598 72.3148906,49.0839375 72.3148906,49.0839375 L71.5641107,50.9774626 Z" id="Fill-25" fill="#D89688"></path>
                <path d="M73,49 C72.9351976,49.5068827 72.8271935,50.2299052 72.5904154,50.7360907 C72.1808307,51.6041361 70.9745085,53.6477031 71.7928469,54.2807836 C72.0304559,54.4794928 72.3752381,54.6607713 72.6768186,54.805097 C72.5480446,54.8783056 72.3968389,54.9138641 72.2240324,54.9501198 C71.0177101,55.2032125 70.7368996,54.4620622 71.2328874,53.4308661 C71.7504761,52.4003673 71.7288753,51.3691712 71.7288753,51.3691712 L72.6984194,49.3256042 C72.6984194,49.3256042 72.8064235,49.1812786 73,49" id="Fill-27" fill="#CA625F"></path>
                <path d="M73,54.6749634 C73.0169887,54.0937566 73.2881546,53 73.2881546,53 C73.2881546,53 73.6102866,54.6926376 74.6269952,54.7633341 C75.6606926,54.8163564 76.2370018,54.7986823 77.3896201,55.1514851 C78.2201064,55.3975633 79.2877812,55.4859339 80,55.6450011 C79.9830113,55.6980235 79.9490339,55.7333717 79.9150565,55.7680402 C79.4406795,56.4029492 78.1018389,55.5042878 77.2203864,55.7680402 C76.3559227,56.0501465 76.6950434,55.5743046 74.525063,55.2568501 C73.5593205,55.133811 73.1522449,54.887053 73,54.6749634" id="Fill-29" fill="#CA625F"></path>
                <path d="M40,52.3073258 C40,52.3073258 41.516465,51.9343028 43.1186172,52.3073258 C44.7380398,52.6953177 46.6337871,53.4251973 48.9938397,53.3012555 C51.3372863,53.1617461 51.509325,52.8354258 53.3014505,53.3012555 C55.0763058,53.7670852 56.1098667,53.8916257 56.8159561,53.6425446 C57.5227099,53.3940622 57.5911268,53.3012555 57.5911268,53.3012555 C57.5911268,53.3012555 61.3474166,54 62.2952902,54 C63.2258936,54 63.1050015,53.0372055 62.6745725,52.5869434 C62.2607496,52.1366813 56.4200678,51.173288 56.4200678,51.173288 L52.9048979,50.4745435 C52.9048979,50.4745435 47.5125796,50.1637908 46.6510574,50.1176869 C45.7716007,50.0865517 45.4959402,49.8692044 43.9110582,50.1176869 C42.308906,50.3661693 41.5503414,50.4745435 41.5503414,50.4745435 L40,52.3073258 Z" id="Fill-31" fill="#D89688"></path>
                <path d="M40.5708391,52 C41.0708391,52.1626898 41.8019257,52.280854 42.8363136,52.2072154 C45.3163686,52.014271 45.9759285,53.2729763 48.4917469,53.2141796 C51.0247593,53.1548121 51.2922971,53.0954446 52.9511692,53.2141796 C54.610729,53.3323438 57.4112792,53.5549719 57.4112792,53.5549719 L58,53.6731361 C57.8755158,53.7176617 57.6966988,53.7918711 57.4112792,53.8803515 C56.6801926,54.1172507 55.6100413,53.9990865 53.7723521,53.5549719 C51.9167813,53.1102865 51.738652,53.4213951 49.3122421,53.5549719 C46.8686382,53.6731361 44.9057772,52.9772805 43.2290234,52.6068044 C41.5701513,52.2511702 40,52.6068044 40,52.6068044 L40.5708391,52 Z" id="Fill-33" fill="#CA625F"></path>
                <path d="M58.8409193,54.3953021 L54,53.2633739 C54,53.2633739 54.2796077,52.6977858 56.2193442,53.2242641 C57.6874532,53.634165 61.3230274,54.3170825 63,54.609654 C62.8955682,54.8435607 62.6860308,55 62.3538703,55 C61.7596197,55 60.0469382,54.6487638 58.8409193,54.3953021" id="Fill-35" fill="#CA625F"></path>
                <path d="M86.6169022,17.0333128 C86.9596926,17.0838817 87.2833984,17.1843712 87.5689348,17.3529343 C88.0834874,17.6388432 88.844673,18.1938046 88.9775319,18.8661119 C89.1874635,19.8580407 87.9117252,20.2619437 85.7602931,19.8249764 C83.608861,19.404217 83.8180586,18.0252416 84.3700467,17.5039927 C84.9602041,16.9490313 85.9885754,16.9658876 86.6169022,17.0333128" id="Fill-37" fill="#000000"></path>
                <path d="M85.5,17 C85.7794785,17 86,17.2352608 86,17.5 C86,17.7794785 85.7794785,18 85.5,18 C85.2205215,18 85,17.7794785 85,17.5 C85,17.2352608 85.2205215,17 85.5,17" id="Fill-39" fill="#FFFFFF"></path>
                <path d="M75.2308298,18 C75.2308298,18 77.5427245,16.0736644 77.8755604,13.8334724 C78.2083963,11.5919305 78.042299,7.42540289 75.2308298,7.07509869 C72.4360344,6.72479449 71.2053753,7.63531542 70.3235847,9.07095518 C69.441794,10.5065949 70.5897251,11.3995669 71.0719844,12.239892 C71.5709176,13.0977661 69.6252065,17.5970489 75.2308298,18" id="Fill-41" fill="#D89688"></path>
                <path d="M74.1081774,7 C75.1198372,7.70092081 76.0339799,8.8218539 76.1805699,10.6605893 C76.5234521,15.0045427 72.9329409,13.6911602 74.3201981,16.4934929 C74.6140073,17.0883978 74.7933126,17.5793125 74.8914587,17.9642112 C75.0223202,17.9824432 75.1525525,18 75.283414,18 C75.283414,18 77.5514695,16.0728054 77.877994,13.8309392 C78.2045185,11.5890731 78.0409417,7.42068754 75.283414,7.07022713 C74.8587434,7.01755678 74.4674173,7 74.1081774,7" id="Fill-43" fill="#CA625F"></path>
            </g>
        </g>
    </g>
</svg>